M48
;DRILL file {Pcbnew (22-Jun-2014 BZR 4027)-stable} date Sat 10 Oct 2015 09:13:35 PM CEST
;FORMAT={-:-/ absolute / inch / decimal}
FMAT,2
INCH,TZ
T1C0.020
T2C0.032
T3C0.039
T4C0.040
T5C0.045
T6C0.060
%
G90
G05
M72
T1
X4.1646Y-2.1296
X4.2165Y-3.7165
X4.4198Y-3.0947
X4.4802Y-3.1469
X4.6228Y-3.1836
X4.7283Y-3.2283
X5.315Y-2.9173
X5.4055Y-3.5039
T2
X3.6614Y-2.3713
X3.6614Y-2.4713
X3.6614Y-2.7256
X3.6614Y-2.8256
X3.6614Y-3.0799
X3.6614Y-3.1799
X3.6614Y-3.4343
X3.6614Y-3.5343
X3.9173Y-1.2098
X3.9173Y-1.3098
X4.3457Y-2.2437
X4.3457Y-2.3437
X4.3457Y-2.4437
X4.3457Y-2.5437
X4.3457Y-2.6437
X4.3457Y-2.7437
X4.3457Y-2.8437
X4.3457Y-2.9437
X4.3457Y-3.0437
X4.3457Y-3.1437
X4.3457Y-3.2437
X4.3457Y-3.3437
X4.3457Y-3.4437
X4.3457Y-3.5437
X4.3457Y-3.6437
X4.3504Y-1.5126
X4.3504Y-1.9126
X4.4882Y-2.0638
X4.4882Y-2.4638
X4.4882Y-2.6346
X4.4882Y-3.0346
X4.4882Y-3.2843
X4.4882Y-3.6843
X4.4891Y-1.5028
X4.4891Y-1.6028
X4.4891Y-1.7028
X4.4891Y-1.8028
X4.4891Y-1.9028
X4.6457Y-2.0638
X4.6457Y-2.4638
X4.6457Y-2.6346
X4.6457Y-3.0346
X4.6457Y-3.2843
X4.6457Y-3.6843
X4.8031Y-2.6346
X4.8031Y-3.0346
X4.8031Y-3.2843
X4.8031Y-3.6843
X4.9457Y-2.2437
X4.9457Y-2.3437
X4.9457Y-2.4437
X4.9457Y-2.5437
X4.9457Y-2.6437
X4.9457Y-2.7437
X4.9457Y-2.8437
X4.9457Y-2.9437
X4.9457Y-3.0437
X4.9457Y-3.1437
X4.9457Y-3.2437
X4.9457Y-3.3437
X4.9457Y-3.4437
X4.9457Y-3.5437
X4.9457Y-3.6437
X5.052Y-3.8819
X5.452Y-3.8819
X5.5087Y-2.4803
X5.5087Y-2.6378
X5.5087Y-2.7953
X5.5087Y-2.9528
X5.5087Y-3.1102
X5.5087Y-3.2677
X5.5087Y-3.4252
X5.5087Y-3.5827
X5.5118Y-1.4945
X5.5118Y-1.6945
X5.6252Y-1.9882
X5.6299Y-1.2083
X5.6299Y-1.5083
X5.7252Y-1.9882
X5.8252Y-1.9882
X5.9087Y-2.4803
X5.9087Y-2.6378
X5.9087Y-2.7953
X5.9087Y-2.9528
X5.9087Y-3.1102
X5.9087Y-3.2677
X5.9087Y-3.4252
X5.9087Y-3.5827
X5.9252Y-1.9882
X5.9933Y-2.5591
X5.9933Y-2.874
X5.9933Y-3.189
X5.9933Y-3.5039
X6.0252Y-1.9882
X6.0933Y-2.5591
X6.0933Y-2.874
X6.0933Y-3.189
X6.0933Y-3.5039
X6.1252Y-1.9882
X6.2252Y-1.9882
T3
X3.8567Y-1.8504
X3.8567Y-2.1457
X3.9567Y-1.8504
X3.9567Y-2.1457
X4.0567Y-1.8504
X4.0567Y-2.1457
X4.8516Y-1.2598
X4.9516Y-1.2598
X5.2059Y-1.4051
X5.2059Y-1.5051
X5.2059Y-1.6051
X5.2059Y-1.7051
X5.2059Y-2.2606
X5.2059Y-2.3606
X5.2059Y-2.4606
X5.2059Y-2.5606
X5.2059Y-2.6606
X5.2059Y-3.2055
X5.2059Y-3.3055
X5.2059Y-3.4055
X5.2059Y-3.5055
X5.2059Y-3.6055
X5.3059Y-1.4051
X5.3059Y-1.5051
X5.3059Y-1.6051
X5.3059Y-1.7051
X5.3059Y-2.2606
X5.3059Y-2.3606
X5.3059Y-2.4606
X5.3059Y-2.5606
X5.3059Y-2.6606
X5.3059Y-3.2055
X5.3059Y-3.3055
X5.3059Y-3.4055
X5.3059Y-3.5055
X5.3059Y-3.6055
X5.8646Y-1.2992
X5.8646Y-1.6142
X5.9646Y-1.2992
X5.9646Y-1.6142
X6.0646Y-1.2992
X6.0646Y-1.6142
T4
X3.8976Y-1.4354
X3.8976Y-1.5354
X3.8976Y-1.6354
X4.1535Y-1.2098
X4.1535Y-1.3098
X4.2323Y-1.7504
X4.2323Y-1.8504
X4.2323Y-1.9504
X4.2362Y-2.45
X4.2362Y-2.55
X4.2362Y-2.8043
X4.2362Y-2.9043
X4.2362Y-3.1626
X4.2362Y-3.2626
X4.2362Y-3.5091
X4.2362Y-3.6091
X4.6457Y-1.5126
X4.6457Y-1.9126
X4.8516Y-1.5232
X4.8516Y-1.6232
X4.8516Y-1.7232
X4.8516Y-1.8232
X4.9516Y-1.5232
X4.9516Y-1.6232
X4.9516Y-1.7232
X4.9516Y-1.8232
X5.5638Y-3.6929
X5.6638Y-3.6929
X5.7638Y-3.6929
X5.8638Y-3.6929
X5.9055Y-2.1441
X5.9055Y-2.2441
X5.9055Y-2.3441
X5.9638Y-3.6929
X6.0236Y-2.1441
X6.0236Y-2.2441
X6.0236Y-2.3441
X6.2098Y-2.5394
X6.2098Y-2.8543
X6.2098Y-3.1693
X6.2098Y-3.4843
X6.3098Y-2.5394
X6.3098Y-2.8543
X6.3098Y-3.1693
X6.3098Y-3.4843
T5
X3.8561Y-2.3606
X3.8561Y-2.5606
X3.8561Y-2.715
X3.8561Y-2.915
X3.8561Y-3.0693
X3.8561Y-3.2693
X3.8561Y-3.4236
X3.8561Y-3.6236
X4.1311Y-2.3606
X4.1311Y-2.5606
X4.1311Y-2.715
X4.1311Y-2.915
X4.1311Y-3.0693
X4.1311Y-3.2693
X4.1311Y-3.4236
X4.1311Y-3.6236
T6
X4.4276Y-1.2795
X4.6276Y-1.2795
T0
M30
