G04 (created by PCBNEW (22-Jun-2014 BZR 4027)-stable) date Fri 09 Oct 2015 01:46:11 PM CEST*
%MOIN*%
G04 Gerber Fmt 3.4, Leading zero omitted, Abs format*
%FSLAX34Y34*%
G01*
G70*
G90*
G04 APERTURE LIST*
%ADD10C,0.00590551*%
%ADD11C,0.06*%
%ADD12R,0.035X0.055*%
%ADD13R,0.06X0.06*%
%ADD14R,0.09X0.062*%
%ADD15O,0.09X0.062*%
%ADD16R,0.1X0.1*%
%ADD17C,0.1*%
%ADD18C,0.055*%
%ADD19R,0.055X0.055*%
%ADD20C,0.07*%
%ADD21R,0.07X0.07*%
%ADD22R,0.0629X0.0709*%
%ADD23C,0.066*%
%ADD24O,0.0593X0.1187*%
%ADD25R,0.055X0.035*%
%ADD26R,0.08X0.06*%
%ADD27R,0.11X0.07*%
%ADD28C,0.0593*%
G04 APERTURE END LIST*
G54D10*
G54D11*
X87984Y-63740D03*
X83984Y-63740D03*
G54D12*
X87225Y-63740D03*
X86475Y-63740D03*
G54D13*
X75826Y-49421D03*
G54D11*
X75826Y-50421D03*
G54D13*
X75826Y-52964D03*
G54D11*
X75826Y-53964D03*
G54D13*
X75826Y-56547D03*
G54D11*
X75826Y-57547D03*
G54D13*
X75826Y-60011D03*
G54D11*
X75826Y-61011D03*
G54D13*
X93102Y-61850D03*
G54D11*
X92102Y-61850D03*
X91102Y-61850D03*
X90102Y-61850D03*
X89102Y-61850D03*
G54D13*
X92519Y-46362D03*
G54D11*
X92519Y-47362D03*
X92519Y-48362D03*
G54D14*
X82921Y-61358D03*
G54D15*
X82921Y-60358D03*
X82921Y-59358D03*
X82921Y-58358D03*
X82921Y-57358D03*
X82921Y-56358D03*
X82921Y-55358D03*
X82921Y-54358D03*
X82921Y-53358D03*
X82921Y-52358D03*
X82921Y-51358D03*
X82921Y-50358D03*
X82921Y-49358D03*
X82921Y-48358D03*
X82921Y-47358D03*
X76921Y-47358D03*
X76921Y-48358D03*
X76921Y-49358D03*
X76921Y-50358D03*
X76921Y-51358D03*
X76921Y-52358D03*
X76921Y-53358D03*
X76921Y-54358D03*
X76921Y-55358D03*
X76921Y-56358D03*
X76921Y-57358D03*
X76921Y-58358D03*
X76921Y-59358D03*
X76921Y-60358D03*
X76921Y-61358D03*
G54D16*
X79740Y-37716D03*
G54D17*
X77740Y-37716D03*
G54D18*
X88582Y-41866D03*
X88582Y-39866D03*
G54D19*
X89763Y-37003D03*
G54D18*
X89763Y-40003D03*
G54D20*
X79921Y-40047D03*
G54D21*
X79921Y-44047D03*
G54D22*
X70637Y-54251D03*
X69519Y-54251D03*
X96621Y-54448D03*
X95503Y-54448D03*
X96621Y-57598D03*
X95503Y-57598D03*
X70637Y-57795D03*
X69519Y-57795D03*
X70637Y-61338D03*
X69519Y-61338D03*
X96621Y-51299D03*
X95503Y-51299D03*
X70637Y-50708D03*
X69519Y-50708D03*
X96621Y-60748D03*
X95503Y-60748D03*
G54D23*
X93397Y-56811D03*
X94397Y-56811D03*
X93397Y-50511D03*
X94397Y-50511D03*
X70078Y-60263D03*
X70078Y-59263D03*
X70078Y-49633D03*
X70078Y-48633D03*
X93397Y-59960D03*
X94397Y-59960D03*
X93397Y-53661D03*
X94397Y-53661D03*
X70078Y-56720D03*
X70078Y-55720D03*
X70078Y-53177D03*
X70078Y-52177D03*
G54D20*
X74775Y-59157D03*
X74775Y-61157D03*
X72025Y-61157D03*
X72025Y-59157D03*
X74775Y-48527D03*
X74775Y-50527D03*
X72025Y-50527D03*
X72025Y-48527D03*
X74775Y-55614D03*
X74775Y-57614D03*
X72025Y-57614D03*
X72025Y-55614D03*
X74775Y-52070D03*
X74775Y-54070D03*
X72025Y-54070D03*
X72025Y-52070D03*
G54D13*
X96562Y-53464D03*
G54D11*
X95562Y-53464D03*
G54D13*
X96562Y-50314D03*
G54D11*
X95562Y-50314D03*
G54D13*
X75000Y-38019D03*
G54D11*
X75000Y-37019D03*
G54D13*
X96562Y-59763D03*
G54D11*
X95562Y-59763D03*
G54D13*
X96562Y-56614D03*
G54D11*
X95562Y-56614D03*
G54D13*
X75787Y-44425D03*
G54D11*
X75787Y-43425D03*
X75787Y-42425D03*
G54D13*
X72440Y-39275D03*
G54D11*
X72440Y-40275D03*
X72440Y-41275D03*
G54D13*
X93700Y-46362D03*
G54D11*
X93700Y-47362D03*
X93700Y-48362D03*
G54D13*
X82980Y-43153D03*
G54D11*
X81980Y-43153D03*
X82980Y-42153D03*
X81980Y-42153D03*
X82980Y-41153D03*
X81980Y-41153D03*
X82980Y-40153D03*
X81980Y-40153D03*
G54D24*
X82980Y-37519D03*
X81980Y-37519D03*
X74031Y-43425D03*
X73031Y-43425D03*
X72031Y-43425D03*
X94110Y-41062D03*
X93110Y-41062D03*
X92110Y-41062D03*
X94110Y-37913D03*
X93110Y-37913D03*
X92110Y-37913D03*
X74031Y-46377D03*
X73031Y-46377D03*
X72031Y-46377D03*
G54D11*
X81496Y-55267D03*
X81496Y-51267D03*
X88551Y-49724D03*
X92551Y-49724D03*
X79921Y-61763D03*
X79921Y-57763D03*
X88551Y-52874D03*
X92551Y-52874D03*
X78346Y-61763D03*
X78346Y-57763D03*
X78346Y-55267D03*
X78346Y-51267D03*
X88551Y-51299D03*
X92551Y-51299D03*
X88551Y-54448D03*
X92551Y-54448D03*
X79921Y-55267D03*
X79921Y-51267D03*
X78346Y-49559D03*
X78346Y-45559D03*
X88551Y-57598D03*
X92551Y-57598D03*
X88551Y-60748D03*
X92551Y-60748D03*
X88551Y-56023D03*
X92551Y-56023D03*
X79921Y-49559D03*
X79921Y-45559D03*
X92551Y-59173D03*
X88551Y-59173D03*
X76968Y-44047D03*
X76968Y-40047D03*
X81496Y-61763D03*
X81496Y-57763D03*
G54D19*
X72637Y-38019D03*
G54D18*
X72637Y-37019D03*
G54D19*
X78355Y-39949D03*
G54D18*
X78355Y-40949D03*
X78355Y-41949D03*
X78355Y-42949D03*
X78355Y-43949D03*
G54D19*
X95716Y-44803D03*
G54D18*
X94716Y-44803D03*
X93716Y-44803D03*
X92716Y-44803D03*
X91716Y-44803D03*
X90716Y-44803D03*
X89716Y-44803D03*
G54D25*
X81496Y-59351D03*
X81496Y-58601D03*
X88582Y-41241D03*
X88582Y-40491D03*
X79921Y-59351D03*
X79921Y-58601D03*
G54D12*
X90963Y-51299D03*
X91713Y-51299D03*
X90963Y-49724D03*
X91713Y-49724D03*
G54D25*
X78346Y-59351D03*
X78346Y-58601D03*
X81496Y-52855D03*
X81496Y-52105D03*
G54D12*
X90963Y-52874D03*
X91713Y-52874D03*
G54D25*
X79921Y-52855D03*
X79921Y-52105D03*
G54D12*
X90963Y-54448D03*
X91713Y-54448D03*
X90963Y-60748D03*
X91713Y-60748D03*
G54D25*
X78346Y-52855D03*
X78346Y-52105D03*
G54D12*
X90963Y-57598D03*
X91713Y-57598D03*
X90963Y-56023D03*
X91713Y-56023D03*
G54D25*
X79921Y-47146D03*
X79921Y-46396D03*
X78346Y-47146D03*
X78346Y-46396D03*
X76968Y-41634D03*
X76968Y-40884D03*
G54D12*
X91713Y-59173D03*
X90963Y-59173D03*
G54D26*
X88582Y-38760D03*
X88582Y-37460D03*
G54D27*
X79921Y-41150D03*
X79921Y-42550D03*
G54D28*
X86523Y-41972D03*
X85523Y-41972D03*
X86523Y-40972D03*
X85523Y-40972D03*
X86523Y-39972D03*
X85523Y-39972D03*
X86523Y-38972D03*
X85523Y-38972D03*
X85523Y-47527D03*
X86523Y-47527D03*
X85523Y-48527D03*
X86523Y-48527D03*
X85523Y-49527D03*
X86523Y-49527D03*
X85523Y-50527D03*
X86523Y-50527D03*
X85523Y-51527D03*
X86523Y-51527D03*
X85523Y-56976D03*
X86523Y-56976D03*
X85523Y-57976D03*
X86523Y-57976D03*
X85523Y-58976D03*
X86523Y-58976D03*
X85523Y-59976D03*
X86523Y-59976D03*
X85523Y-60976D03*
X86523Y-60976D03*
G54D11*
X58850Y-63740D03*
X54850Y-63740D03*
G54D12*
X58091Y-63740D03*
X57341Y-63740D03*
G54D13*
X46692Y-49421D03*
G54D11*
X46692Y-50421D03*
G54D13*
X46692Y-52964D03*
G54D11*
X46692Y-53964D03*
G54D13*
X46692Y-56547D03*
G54D11*
X46692Y-57547D03*
G54D13*
X46692Y-60011D03*
G54D11*
X46692Y-61011D03*
G54D13*
X63968Y-61850D03*
G54D11*
X62968Y-61850D03*
X61968Y-61850D03*
X60968Y-61850D03*
X59968Y-61850D03*
G54D13*
X63385Y-46362D03*
G54D11*
X63385Y-47362D03*
X63385Y-48362D03*
G54D14*
X53787Y-61358D03*
G54D15*
X53787Y-60358D03*
X53787Y-59358D03*
X53787Y-58358D03*
X53787Y-57358D03*
X53787Y-56358D03*
X53787Y-55358D03*
X53787Y-54358D03*
X53787Y-53358D03*
X53787Y-52358D03*
X53787Y-51358D03*
X53787Y-50358D03*
X53787Y-49358D03*
X53787Y-48358D03*
X53787Y-47358D03*
X47787Y-47358D03*
X47787Y-48358D03*
X47787Y-49358D03*
X47787Y-50358D03*
X47787Y-51358D03*
X47787Y-52358D03*
X47787Y-53358D03*
X47787Y-54358D03*
X47787Y-55358D03*
X47787Y-56358D03*
X47787Y-57358D03*
X47787Y-58358D03*
X47787Y-59358D03*
X47787Y-60358D03*
X47787Y-61358D03*
G54D16*
X50606Y-37716D03*
G54D17*
X48606Y-37716D03*
G54D18*
X59448Y-41866D03*
X59448Y-39866D03*
G54D19*
X60629Y-37003D03*
G54D18*
X60629Y-40003D03*
G54D20*
X50787Y-40047D03*
G54D21*
X50787Y-44047D03*
G54D22*
X41503Y-54251D03*
X40385Y-54251D03*
X67488Y-54448D03*
X66370Y-54448D03*
X67488Y-57598D03*
X66370Y-57598D03*
X41503Y-57795D03*
X40385Y-57795D03*
X41503Y-61338D03*
X40385Y-61338D03*
X67488Y-51299D03*
X66370Y-51299D03*
X41503Y-50708D03*
X40385Y-50708D03*
X67488Y-60748D03*
X66370Y-60748D03*
G54D23*
X64263Y-56811D03*
X65263Y-56811D03*
X64263Y-50511D03*
X65263Y-50511D03*
X40944Y-60263D03*
X40944Y-59263D03*
X40944Y-49633D03*
X40944Y-48633D03*
X64263Y-59960D03*
X65263Y-59960D03*
X64263Y-53661D03*
X65263Y-53661D03*
X40944Y-56720D03*
X40944Y-55720D03*
X40944Y-53177D03*
X40944Y-52177D03*
G54D20*
X45641Y-59157D03*
X45641Y-61157D03*
X42891Y-61157D03*
X42891Y-59157D03*
X45641Y-48527D03*
X45641Y-50527D03*
X42891Y-50527D03*
X42891Y-48527D03*
X45641Y-55614D03*
X45641Y-57614D03*
X42891Y-57614D03*
X42891Y-55614D03*
X45641Y-52070D03*
X45641Y-54070D03*
X42891Y-54070D03*
X42891Y-52070D03*
G54D13*
X67429Y-53464D03*
G54D11*
X66429Y-53464D03*
G54D13*
X67429Y-50314D03*
G54D11*
X66429Y-50314D03*
G54D13*
X45866Y-38019D03*
G54D11*
X45866Y-37019D03*
G54D13*
X67429Y-59763D03*
G54D11*
X66429Y-59763D03*
G54D13*
X67429Y-56614D03*
G54D11*
X66429Y-56614D03*
G54D13*
X46653Y-44425D03*
G54D11*
X46653Y-43425D03*
X46653Y-42425D03*
G54D13*
X43307Y-39275D03*
G54D11*
X43307Y-40275D03*
X43307Y-41275D03*
G54D13*
X64566Y-46362D03*
G54D11*
X64566Y-47362D03*
X64566Y-48362D03*
G54D13*
X53846Y-43153D03*
G54D11*
X52846Y-43153D03*
X53846Y-42153D03*
X52846Y-42153D03*
X53846Y-41153D03*
X52846Y-41153D03*
X53846Y-40153D03*
X52846Y-40153D03*
G54D24*
X53846Y-37519D03*
X52846Y-37519D03*
X44897Y-43425D03*
X43897Y-43425D03*
X42897Y-43425D03*
X64976Y-41062D03*
X63976Y-41062D03*
X62976Y-41062D03*
X64976Y-37913D03*
X63976Y-37913D03*
X62976Y-37913D03*
X44897Y-46377D03*
X43897Y-46377D03*
X42897Y-46377D03*
G54D11*
X52362Y-55267D03*
X52362Y-51267D03*
X59417Y-49724D03*
X63417Y-49724D03*
X50787Y-61763D03*
X50787Y-57763D03*
X59417Y-52874D03*
X63417Y-52874D03*
X49212Y-61763D03*
X49212Y-57763D03*
X49212Y-55267D03*
X49212Y-51267D03*
X59417Y-51299D03*
X63417Y-51299D03*
X59417Y-54448D03*
X63417Y-54448D03*
X50787Y-55267D03*
X50787Y-51267D03*
X49212Y-49559D03*
X49212Y-45559D03*
X59417Y-57598D03*
X63417Y-57598D03*
X59417Y-60748D03*
X63417Y-60748D03*
X59417Y-56023D03*
X63417Y-56023D03*
X50787Y-49559D03*
X50787Y-45559D03*
X63417Y-59173D03*
X59417Y-59173D03*
X47834Y-44047D03*
X47834Y-40047D03*
X52362Y-61763D03*
X52362Y-57763D03*
G54D19*
X43503Y-38019D03*
G54D18*
X43503Y-37019D03*
G54D19*
X49221Y-39949D03*
G54D18*
X49221Y-40949D03*
X49221Y-41949D03*
X49221Y-42949D03*
X49221Y-43949D03*
G54D19*
X66582Y-44803D03*
G54D18*
X65582Y-44803D03*
X64582Y-44803D03*
X63582Y-44803D03*
X62582Y-44803D03*
X61582Y-44803D03*
X60582Y-44803D03*
G54D25*
X52362Y-59351D03*
X52362Y-58601D03*
X59448Y-41241D03*
X59448Y-40491D03*
X50787Y-59351D03*
X50787Y-58601D03*
G54D12*
X61829Y-51299D03*
X62579Y-51299D03*
X61829Y-49724D03*
X62579Y-49724D03*
G54D25*
X49212Y-59351D03*
X49212Y-58601D03*
X52362Y-52855D03*
X52362Y-52105D03*
G54D12*
X61829Y-52874D03*
X62579Y-52874D03*
G54D25*
X50787Y-52855D03*
X50787Y-52105D03*
G54D12*
X61829Y-54448D03*
X62579Y-54448D03*
X61829Y-60748D03*
X62579Y-60748D03*
G54D25*
X49212Y-52855D03*
X49212Y-52105D03*
G54D12*
X61829Y-57598D03*
X62579Y-57598D03*
X61829Y-56023D03*
X62579Y-56023D03*
G54D25*
X50787Y-47146D03*
X50787Y-46396D03*
X49212Y-47146D03*
X49212Y-46396D03*
X47834Y-41634D03*
X47834Y-40884D03*
G54D12*
X62579Y-59173D03*
X61829Y-59173D03*
G54D26*
X59448Y-38760D03*
X59448Y-37460D03*
G54D27*
X50787Y-41150D03*
X50787Y-42550D03*
G54D28*
X57389Y-41972D03*
X56389Y-41972D03*
X57389Y-40972D03*
X56389Y-40972D03*
X57389Y-39972D03*
X56389Y-39972D03*
X57389Y-38972D03*
X56389Y-38972D03*
X56389Y-47527D03*
X57389Y-47527D03*
X56389Y-48527D03*
X57389Y-48527D03*
X56389Y-49527D03*
X57389Y-49527D03*
X56389Y-50527D03*
X57389Y-50527D03*
X56389Y-51527D03*
X57389Y-51527D03*
X56389Y-56976D03*
X57389Y-56976D03*
X56389Y-57976D03*
X57389Y-57976D03*
X56389Y-58976D03*
X57389Y-58976D03*
X56389Y-59976D03*
X57389Y-59976D03*
X56389Y-60976D03*
X57389Y-60976D03*
G54D11*
X87984Y-33858D03*
X83984Y-33858D03*
G54D12*
X87225Y-33858D03*
X86475Y-33858D03*
G54D13*
X75826Y-19539D03*
G54D11*
X75826Y-20539D03*
G54D13*
X75826Y-23082D03*
G54D11*
X75826Y-24082D03*
G54D13*
X75826Y-26665D03*
G54D11*
X75826Y-27665D03*
G54D13*
X75826Y-30129D03*
G54D11*
X75826Y-31129D03*
G54D13*
X93102Y-31968D03*
G54D11*
X92102Y-31968D03*
X91102Y-31968D03*
X90102Y-31968D03*
X89102Y-31968D03*
G54D13*
X92519Y-16480D03*
G54D11*
X92519Y-17480D03*
X92519Y-18480D03*
G54D14*
X82921Y-31476D03*
G54D15*
X82921Y-30476D03*
X82921Y-29476D03*
X82921Y-28476D03*
X82921Y-27476D03*
X82921Y-26476D03*
X82921Y-25476D03*
X82921Y-24476D03*
X82921Y-23476D03*
X82921Y-22476D03*
X82921Y-21476D03*
X82921Y-20476D03*
X82921Y-19476D03*
X82921Y-18476D03*
X82921Y-17476D03*
X76921Y-17476D03*
X76921Y-18476D03*
X76921Y-19476D03*
X76921Y-20476D03*
X76921Y-21476D03*
X76921Y-22476D03*
X76921Y-23476D03*
X76921Y-24476D03*
X76921Y-25476D03*
X76921Y-26476D03*
X76921Y-27476D03*
X76921Y-28476D03*
X76921Y-29476D03*
X76921Y-30476D03*
X76921Y-31476D03*
G54D16*
X79740Y-7834D03*
G54D17*
X77740Y-7834D03*
G54D18*
X88582Y-11984D03*
X88582Y-9984D03*
G54D19*
X89763Y-7122D03*
G54D18*
X89763Y-10122D03*
G54D20*
X79921Y-10165D03*
G54D21*
X79921Y-14165D03*
G54D22*
X70637Y-24370D03*
X69519Y-24370D03*
X96621Y-24566D03*
X95503Y-24566D03*
X96621Y-27716D03*
X95503Y-27716D03*
X70637Y-27913D03*
X69519Y-27913D03*
X70637Y-31456D03*
X69519Y-31456D03*
X96621Y-21417D03*
X95503Y-21417D03*
X70637Y-20826D03*
X69519Y-20826D03*
X96621Y-30866D03*
X95503Y-30866D03*
G54D23*
X93397Y-26929D03*
X94397Y-26929D03*
X93397Y-20629D03*
X94397Y-20629D03*
X70078Y-30381D03*
X70078Y-29381D03*
X70078Y-19751D03*
X70078Y-18751D03*
X93397Y-30078D03*
X94397Y-30078D03*
X93397Y-23779D03*
X94397Y-23779D03*
X70078Y-26838D03*
X70078Y-25838D03*
X70078Y-23295D03*
X70078Y-22295D03*
G54D20*
X74775Y-29275D03*
X74775Y-31275D03*
X72025Y-31275D03*
X72025Y-29275D03*
X74775Y-18645D03*
X74775Y-20645D03*
X72025Y-20645D03*
X72025Y-18645D03*
X74775Y-25732D03*
X74775Y-27732D03*
X72025Y-27732D03*
X72025Y-25732D03*
X74775Y-22188D03*
X74775Y-24188D03*
X72025Y-24188D03*
X72025Y-22188D03*
G54D13*
X96562Y-23582D03*
G54D11*
X95562Y-23582D03*
G54D13*
X96562Y-20433D03*
G54D11*
X95562Y-20433D03*
G54D13*
X75000Y-8137D03*
G54D11*
X75000Y-7137D03*
G54D13*
X96562Y-29881D03*
G54D11*
X95562Y-29881D03*
G54D13*
X96562Y-26732D03*
G54D11*
X95562Y-26732D03*
G54D13*
X75787Y-14543D03*
G54D11*
X75787Y-13543D03*
X75787Y-12543D03*
G54D13*
X72440Y-9393D03*
G54D11*
X72440Y-10393D03*
X72440Y-11393D03*
G54D13*
X93700Y-16480D03*
G54D11*
X93700Y-17480D03*
X93700Y-18480D03*
G54D13*
X82980Y-13271D03*
G54D11*
X81980Y-13271D03*
X82980Y-12271D03*
X81980Y-12271D03*
X82980Y-11271D03*
X81980Y-11271D03*
X82980Y-10271D03*
X81980Y-10271D03*
G54D24*
X82980Y-7637D03*
X81980Y-7637D03*
X74031Y-13543D03*
X73031Y-13543D03*
X72031Y-13543D03*
X94110Y-11181D03*
X93110Y-11181D03*
X92110Y-11181D03*
X94110Y-8031D03*
X93110Y-8031D03*
X92110Y-8031D03*
X74031Y-16496D03*
X73031Y-16496D03*
X72031Y-16496D03*
G54D11*
X81496Y-25385D03*
X81496Y-21385D03*
X88551Y-19842D03*
X92551Y-19842D03*
X79921Y-31881D03*
X79921Y-27881D03*
X88551Y-22992D03*
X92551Y-22992D03*
X78346Y-31881D03*
X78346Y-27881D03*
X78346Y-25385D03*
X78346Y-21385D03*
X88551Y-21417D03*
X92551Y-21417D03*
X88551Y-24566D03*
X92551Y-24566D03*
X79921Y-25385D03*
X79921Y-21385D03*
X78346Y-19677D03*
X78346Y-15677D03*
X88551Y-27716D03*
X92551Y-27716D03*
X88551Y-30866D03*
X92551Y-30866D03*
X88551Y-26141D03*
X92551Y-26141D03*
X79921Y-19677D03*
X79921Y-15677D03*
X92551Y-29291D03*
X88551Y-29291D03*
X76968Y-14165D03*
X76968Y-10165D03*
X81496Y-31881D03*
X81496Y-27881D03*
G54D19*
X72637Y-8137D03*
G54D18*
X72637Y-7137D03*
G54D19*
X78355Y-10067D03*
G54D18*
X78355Y-11067D03*
X78355Y-12067D03*
X78355Y-13067D03*
X78355Y-14067D03*
G54D19*
X95716Y-14921D03*
G54D18*
X94716Y-14921D03*
X93716Y-14921D03*
X92716Y-14921D03*
X91716Y-14921D03*
X90716Y-14921D03*
X89716Y-14921D03*
G54D25*
X81496Y-29469D03*
X81496Y-28719D03*
X88582Y-11359D03*
X88582Y-10609D03*
X79921Y-29469D03*
X79921Y-28719D03*
G54D12*
X90963Y-21417D03*
X91713Y-21417D03*
X90963Y-19842D03*
X91713Y-19842D03*
G54D25*
X78346Y-29469D03*
X78346Y-28719D03*
X81496Y-22973D03*
X81496Y-22223D03*
G54D12*
X90963Y-22992D03*
X91713Y-22992D03*
G54D25*
X79921Y-22973D03*
X79921Y-22223D03*
G54D12*
X90963Y-24566D03*
X91713Y-24566D03*
X90963Y-30866D03*
X91713Y-30866D03*
G54D25*
X78346Y-22973D03*
X78346Y-22223D03*
G54D12*
X90963Y-27716D03*
X91713Y-27716D03*
X90963Y-26141D03*
X91713Y-26141D03*
G54D25*
X79921Y-17264D03*
X79921Y-16514D03*
X78346Y-17264D03*
X78346Y-16514D03*
X76968Y-11752D03*
X76968Y-11002D03*
G54D12*
X91713Y-29291D03*
X90963Y-29291D03*
G54D26*
X88582Y-8878D03*
X88582Y-7578D03*
G54D27*
X79921Y-11268D03*
X79921Y-12668D03*
G54D28*
X86523Y-12090D03*
X85523Y-12090D03*
X86523Y-11090D03*
X85523Y-11090D03*
X86523Y-10090D03*
X85523Y-10090D03*
X86523Y-9090D03*
X85523Y-9090D03*
X85523Y-17645D03*
X86523Y-17645D03*
X85523Y-18645D03*
X86523Y-18645D03*
X85523Y-19645D03*
X86523Y-19645D03*
X85523Y-20645D03*
X86523Y-20645D03*
X85523Y-21645D03*
X86523Y-21645D03*
X85523Y-27094D03*
X86523Y-27094D03*
X85523Y-28094D03*
X86523Y-28094D03*
X85523Y-29094D03*
X86523Y-29094D03*
X85523Y-30094D03*
X86523Y-30094D03*
X85523Y-31094D03*
X86523Y-31094D03*
G54D11*
X58850Y-33858D03*
X54850Y-33858D03*
G54D12*
X58091Y-33858D03*
X57341Y-33858D03*
G54D13*
X46692Y-19539D03*
G54D11*
X46692Y-20539D03*
G54D13*
X46692Y-23082D03*
G54D11*
X46692Y-24082D03*
G54D13*
X46692Y-26665D03*
G54D11*
X46692Y-27665D03*
G54D13*
X46692Y-30129D03*
G54D11*
X46692Y-31129D03*
G54D13*
X63968Y-31968D03*
G54D11*
X62968Y-31968D03*
X61968Y-31968D03*
X60968Y-31968D03*
X59968Y-31968D03*
G54D13*
X63385Y-16480D03*
G54D11*
X63385Y-17480D03*
X63385Y-18480D03*
G54D14*
X53787Y-31476D03*
G54D15*
X53787Y-30476D03*
X53787Y-29476D03*
X53787Y-28476D03*
X53787Y-27476D03*
X53787Y-26476D03*
X53787Y-25476D03*
X53787Y-24476D03*
X53787Y-23476D03*
X53787Y-22476D03*
X53787Y-21476D03*
X53787Y-20476D03*
X53787Y-19476D03*
X53787Y-18476D03*
X53787Y-17476D03*
X47787Y-17476D03*
X47787Y-18476D03*
X47787Y-19476D03*
X47787Y-20476D03*
X47787Y-21476D03*
X47787Y-22476D03*
X47787Y-23476D03*
X47787Y-24476D03*
X47787Y-25476D03*
X47787Y-26476D03*
X47787Y-27476D03*
X47787Y-28476D03*
X47787Y-29476D03*
X47787Y-30476D03*
X47787Y-31476D03*
G54D16*
X50606Y-7834D03*
G54D17*
X48606Y-7834D03*
G54D18*
X59448Y-11984D03*
X59448Y-9984D03*
G54D19*
X60629Y-7122D03*
G54D18*
X60629Y-10122D03*
G54D20*
X50787Y-10165D03*
G54D21*
X50787Y-14165D03*
G54D22*
X41503Y-24370D03*
X40385Y-24370D03*
X67488Y-24566D03*
X66370Y-24566D03*
X67488Y-27716D03*
X66370Y-27716D03*
X41503Y-27913D03*
X40385Y-27913D03*
X41503Y-31456D03*
X40385Y-31456D03*
X67488Y-21417D03*
X66370Y-21417D03*
X41503Y-20826D03*
X40385Y-20826D03*
X67488Y-30866D03*
X66370Y-30866D03*
G54D23*
X64263Y-26929D03*
X65263Y-26929D03*
X64263Y-20629D03*
X65263Y-20629D03*
X40944Y-30381D03*
X40944Y-29381D03*
X40944Y-19751D03*
X40944Y-18751D03*
X64263Y-30078D03*
X65263Y-30078D03*
X64263Y-23779D03*
X65263Y-23779D03*
X40944Y-26838D03*
X40944Y-25838D03*
X40944Y-23295D03*
X40944Y-22295D03*
G54D20*
X45641Y-29275D03*
X45641Y-31275D03*
X42891Y-31275D03*
X42891Y-29275D03*
X45641Y-18645D03*
X45641Y-20645D03*
X42891Y-20645D03*
X42891Y-18645D03*
X45641Y-25732D03*
X45641Y-27732D03*
X42891Y-27732D03*
X42891Y-25732D03*
X45641Y-22188D03*
X45641Y-24188D03*
X42891Y-24188D03*
X42891Y-22188D03*
G54D13*
X67429Y-23582D03*
G54D11*
X66429Y-23582D03*
G54D13*
X67429Y-20433D03*
G54D11*
X66429Y-20433D03*
G54D13*
X45866Y-8137D03*
G54D11*
X45866Y-7137D03*
G54D13*
X67429Y-29881D03*
G54D11*
X66429Y-29881D03*
G54D13*
X67429Y-26732D03*
G54D11*
X66429Y-26732D03*
G54D13*
X46653Y-14543D03*
G54D11*
X46653Y-13543D03*
X46653Y-12543D03*
G54D13*
X43307Y-9393D03*
G54D11*
X43307Y-10393D03*
X43307Y-11393D03*
G54D13*
X64566Y-16480D03*
G54D11*
X64566Y-17480D03*
X64566Y-18480D03*
G54D13*
X53846Y-13271D03*
G54D11*
X52846Y-13271D03*
X53846Y-12271D03*
X52846Y-12271D03*
X53846Y-11271D03*
X52846Y-11271D03*
X53846Y-10271D03*
X52846Y-10271D03*
G54D24*
X53846Y-7637D03*
X52846Y-7637D03*
X44897Y-13543D03*
X43897Y-13543D03*
X42897Y-13543D03*
X64976Y-11181D03*
X63976Y-11181D03*
X62976Y-11181D03*
X64976Y-8031D03*
X63976Y-8031D03*
X62976Y-8031D03*
X44897Y-16496D03*
X43897Y-16496D03*
X42897Y-16496D03*
G54D11*
X52362Y-25385D03*
X52362Y-21385D03*
X59417Y-19842D03*
X63417Y-19842D03*
X50787Y-31881D03*
X50787Y-27881D03*
X59417Y-22992D03*
X63417Y-22992D03*
X49212Y-31881D03*
X49212Y-27881D03*
X49212Y-25385D03*
X49212Y-21385D03*
X59417Y-21417D03*
X63417Y-21417D03*
X59417Y-24566D03*
X63417Y-24566D03*
X50787Y-25385D03*
X50787Y-21385D03*
X49212Y-19677D03*
X49212Y-15677D03*
X59417Y-27716D03*
X63417Y-27716D03*
X59417Y-30866D03*
X63417Y-30866D03*
X59417Y-26141D03*
X63417Y-26141D03*
X50787Y-19677D03*
X50787Y-15677D03*
X63417Y-29291D03*
X59417Y-29291D03*
X47834Y-14165D03*
X47834Y-10165D03*
X52362Y-31881D03*
X52362Y-27881D03*
G54D19*
X43503Y-8137D03*
G54D18*
X43503Y-7137D03*
G54D19*
X49221Y-10067D03*
G54D18*
X49221Y-11067D03*
X49221Y-12067D03*
X49221Y-13067D03*
X49221Y-14067D03*
G54D19*
X66582Y-14921D03*
G54D18*
X65582Y-14921D03*
X64582Y-14921D03*
X63582Y-14921D03*
X62582Y-14921D03*
X61582Y-14921D03*
X60582Y-14921D03*
G54D25*
X52362Y-29469D03*
X52362Y-28719D03*
X59448Y-11359D03*
X59448Y-10609D03*
X50787Y-29469D03*
X50787Y-28719D03*
G54D12*
X61829Y-21417D03*
X62579Y-21417D03*
X61829Y-19842D03*
X62579Y-19842D03*
G54D25*
X49212Y-29469D03*
X49212Y-28719D03*
X52362Y-22973D03*
X52362Y-22223D03*
G54D12*
X61829Y-22992D03*
X62579Y-22992D03*
G54D25*
X50787Y-22973D03*
X50787Y-22223D03*
G54D12*
X61829Y-24566D03*
X62579Y-24566D03*
X61829Y-30866D03*
X62579Y-30866D03*
G54D25*
X49212Y-22973D03*
X49212Y-22223D03*
G54D12*
X61829Y-27716D03*
X62579Y-27716D03*
X61829Y-26141D03*
X62579Y-26141D03*
G54D25*
X50787Y-17264D03*
X50787Y-16514D03*
X49212Y-17264D03*
X49212Y-16514D03*
X47834Y-11752D03*
X47834Y-11002D03*
G54D12*
X62579Y-29291D03*
X61829Y-29291D03*
G54D26*
X59448Y-8878D03*
X59448Y-7578D03*
G54D27*
X50787Y-11268D03*
X50787Y-12668D03*
G54D28*
X57389Y-12090D03*
X56389Y-12090D03*
X57389Y-11090D03*
X56389Y-11090D03*
X57389Y-10090D03*
X56389Y-10090D03*
X57389Y-9090D03*
X56389Y-9090D03*
X56389Y-17645D03*
X57389Y-17645D03*
X56389Y-18645D03*
X57389Y-18645D03*
X56389Y-19645D03*
X57389Y-19645D03*
X56389Y-20645D03*
X57389Y-20645D03*
X56389Y-21645D03*
X57389Y-21645D03*
X56389Y-27094D03*
X57389Y-27094D03*
X56389Y-28094D03*
X57389Y-28094D03*
X56389Y-29094D03*
X57389Y-29094D03*
X56389Y-30094D03*
X57389Y-30094D03*
X56389Y-31094D03*
X57389Y-31094D03*
G54D11*
X29716Y-33858D03*
X25716Y-33858D03*
G54D12*
X28957Y-33858D03*
X28207Y-33858D03*
G54D13*
X17559Y-19539D03*
G54D11*
X17559Y-20539D03*
G54D13*
X17559Y-23082D03*
G54D11*
X17559Y-24082D03*
G54D13*
X17559Y-26665D03*
G54D11*
X17559Y-27665D03*
G54D13*
X17559Y-30129D03*
G54D11*
X17559Y-31129D03*
G54D13*
X34834Y-31968D03*
G54D11*
X33834Y-31968D03*
X32834Y-31968D03*
X31834Y-31968D03*
X30834Y-31968D03*
G54D13*
X34251Y-16480D03*
G54D11*
X34251Y-17480D03*
X34251Y-18480D03*
G54D14*
X24653Y-31476D03*
G54D15*
X24653Y-30476D03*
X24653Y-29476D03*
X24653Y-28476D03*
X24653Y-27476D03*
X24653Y-26476D03*
X24653Y-25476D03*
X24653Y-24476D03*
X24653Y-23476D03*
X24653Y-22476D03*
X24653Y-21476D03*
X24653Y-20476D03*
X24653Y-19476D03*
X24653Y-18476D03*
X24653Y-17476D03*
X18653Y-17476D03*
X18653Y-18476D03*
X18653Y-19476D03*
X18653Y-20476D03*
X18653Y-21476D03*
X18653Y-22476D03*
X18653Y-23476D03*
X18653Y-24476D03*
X18653Y-25476D03*
X18653Y-26476D03*
X18653Y-27476D03*
X18653Y-28476D03*
X18653Y-29476D03*
X18653Y-30476D03*
X18653Y-31476D03*
G54D16*
X21472Y-7834D03*
G54D17*
X19472Y-7834D03*
G54D18*
X30314Y-11984D03*
X30314Y-9984D03*
G54D19*
X31496Y-7122D03*
G54D18*
X31496Y-10122D03*
G54D20*
X21653Y-10165D03*
G54D21*
X21653Y-14165D03*
G54D22*
X12370Y-24370D03*
X11252Y-24370D03*
X38354Y-24566D03*
X37236Y-24566D03*
X38354Y-27716D03*
X37236Y-27716D03*
X12370Y-27913D03*
X11252Y-27913D03*
X12370Y-31456D03*
X11252Y-31456D03*
X38354Y-21417D03*
X37236Y-21417D03*
X12370Y-20826D03*
X11252Y-20826D03*
X38354Y-30866D03*
X37236Y-30866D03*
G54D23*
X35129Y-26929D03*
X36129Y-26929D03*
X35129Y-20629D03*
X36129Y-20629D03*
X11811Y-30381D03*
X11811Y-29381D03*
X11811Y-19751D03*
X11811Y-18751D03*
X35129Y-30078D03*
X36129Y-30078D03*
X35129Y-23779D03*
X36129Y-23779D03*
X11811Y-26838D03*
X11811Y-25838D03*
X11811Y-23295D03*
X11811Y-22295D03*
G54D20*
X16507Y-29275D03*
X16507Y-31275D03*
X13757Y-31275D03*
X13757Y-29275D03*
X16507Y-18645D03*
X16507Y-20645D03*
X13757Y-20645D03*
X13757Y-18645D03*
X16507Y-25732D03*
X16507Y-27732D03*
X13757Y-27732D03*
X13757Y-25732D03*
X16507Y-22188D03*
X16507Y-24188D03*
X13757Y-24188D03*
X13757Y-22188D03*
G54D13*
X38295Y-23582D03*
G54D11*
X37295Y-23582D03*
G54D13*
X38295Y-20433D03*
G54D11*
X37295Y-20433D03*
G54D13*
X16732Y-8137D03*
G54D11*
X16732Y-7137D03*
G54D13*
X38295Y-29881D03*
G54D11*
X37295Y-29881D03*
G54D13*
X38295Y-26732D03*
G54D11*
X37295Y-26732D03*
G54D13*
X17519Y-14543D03*
G54D11*
X17519Y-13543D03*
X17519Y-12543D03*
G54D13*
X14173Y-9393D03*
G54D11*
X14173Y-10393D03*
X14173Y-11393D03*
G54D13*
X35433Y-16480D03*
G54D11*
X35433Y-17480D03*
X35433Y-18480D03*
G54D13*
X24712Y-13271D03*
G54D11*
X23712Y-13271D03*
X24712Y-12271D03*
X23712Y-12271D03*
X24712Y-11271D03*
X23712Y-11271D03*
X24712Y-10271D03*
X23712Y-10271D03*
G54D24*
X24712Y-7637D03*
X23712Y-7637D03*
X15763Y-13543D03*
X14763Y-13543D03*
X13763Y-13543D03*
X35842Y-11181D03*
X34842Y-11181D03*
X33842Y-11181D03*
X35842Y-8031D03*
X34842Y-8031D03*
X33842Y-8031D03*
X15763Y-16496D03*
X14763Y-16496D03*
X13763Y-16496D03*
G54D11*
X23228Y-25385D03*
X23228Y-21385D03*
X30283Y-19842D03*
X34283Y-19842D03*
X21653Y-31881D03*
X21653Y-27881D03*
X30283Y-22992D03*
X34283Y-22992D03*
X20078Y-31881D03*
X20078Y-27881D03*
X20078Y-25385D03*
X20078Y-21385D03*
X30283Y-21417D03*
X34283Y-21417D03*
X30283Y-24566D03*
X34283Y-24566D03*
X21653Y-25385D03*
X21653Y-21385D03*
X20078Y-19677D03*
X20078Y-15677D03*
X30283Y-27716D03*
X34283Y-27716D03*
X30283Y-30866D03*
X34283Y-30866D03*
X30283Y-26141D03*
X34283Y-26141D03*
X21653Y-19677D03*
X21653Y-15677D03*
X34283Y-29291D03*
X30283Y-29291D03*
X18700Y-14165D03*
X18700Y-10165D03*
X23228Y-31881D03*
X23228Y-27881D03*
G54D19*
X14370Y-8137D03*
G54D18*
X14370Y-7137D03*
G54D19*
X20087Y-10067D03*
G54D18*
X20087Y-11067D03*
X20087Y-12067D03*
X20087Y-13067D03*
X20087Y-14067D03*
G54D19*
X37448Y-14921D03*
G54D18*
X36448Y-14921D03*
X35448Y-14921D03*
X34448Y-14921D03*
X33448Y-14921D03*
X32448Y-14921D03*
X31448Y-14921D03*
G54D25*
X23228Y-29469D03*
X23228Y-28719D03*
X30314Y-11359D03*
X30314Y-10609D03*
X21653Y-29469D03*
X21653Y-28719D03*
G54D12*
X32695Y-21417D03*
X33445Y-21417D03*
X32695Y-19842D03*
X33445Y-19842D03*
G54D25*
X20078Y-29469D03*
X20078Y-28719D03*
X23228Y-22973D03*
X23228Y-22223D03*
G54D12*
X32695Y-22992D03*
X33445Y-22992D03*
G54D25*
X21653Y-22973D03*
X21653Y-22223D03*
G54D12*
X32695Y-24566D03*
X33445Y-24566D03*
X32695Y-30866D03*
X33445Y-30866D03*
G54D25*
X20078Y-22973D03*
X20078Y-22223D03*
G54D12*
X32695Y-27716D03*
X33445Y-27716D03*
X32695Y-26141D03*
X33445Y-26141D03*
G54D25*
X21653Y-17264D03*
X21653Y-16514D03*
X20078Y-17264D03*
X20078Y-16514D03*
X18700Y-11752D03*
X18700Y-11002D03*
G54D12*
X33445Y-29291D03*
X32695Y-29291D03*
G54D26*
X30314Y-8878D03*
X30314Y-7578D03*
G54D27*
X21653Y-11268D03*
X21653Y-12668D03*
G54D28*
X28255Y-12090D03*
X27255Y-12090D03*
X28255Y-11090D03*
X27255Y-11090D03*
X28255Y-10090D03*
X27255Y-10090D03*
X28255Y-9090D03*
X27255Y-9090D03*
X27255Y-17645D03*
X28255Y-17645D03*
X27255Y-18645D03*
X28255Y-18645D03*
X27255Y-19645D03*
X28255Y-19645D03*
X27255Y-20645D03*
X28255Y-20645D03*
X27255Y-21645D03*
X28255Y-21645D03*
X27255Y-27094D03*
X28255Y-27094D03*
X27255Y-28094D03*
X28255Y-28094D03*
X27255Y-29094D03*
X28255Y-29094D03*
X27255Y-30094D03*
X28255Y-30094D03*
X27255Y-31094D03*
X28255Y-31094D03*
X27255Y-56976D03*
X28255Y-56976D03*
X27255Y-57976D03*
X28255Y-57976D03*
X27255Y-58976D03*
X28255Y-58976D03*
X27255Y-59976D03*
X28255Y-59976D03*
X27255Y-60976D03*
X28255Y-60976D03*
X27255Y-47527D03*
X28255Y-47527D03*
X27255Y-48527D03*
X28255Y-48527D03*
X27255Y-49527D03*
X28255Y-49527D03*
X27255Y-50527D03*
X28255Y-50527D03*
X27255Y-51527D03*
X28255Y-51527D03*
X28255Y-41972D03*
X27255Y-41972D03*
X28255Y-40972D03*
X27255Y-40972D03*
X28255Y-39972D03*
X27255Y-39972D03*
X28255Y-38972D03*
X27255Y-38972D03*
G54D27*
X21653Y-41150D03*
X21653Y-42550D03*
G54D26*
X30314Y-38760D03*
X30314Y-37460D03*
G54D12*
X33445Y-59173D03*
X32695Y-59173D03*
G54D25*
X18700Y-41634D03*
X18700Y-40884D03*
X20078Y-47146D03*
X20078Y-46396D03*
X21653Y-47146D03*
X21653Y-46396D03*
G54D12*
X32695Y-56023D03*
X33445Y-56023D03*
X32695Y-57598D03*
X33445Y-57598D03*
G54D25*
X20078Y-52855D03*
X20078Y-52105D03*
G54D12*
X32695Y-60748D03*
X33445Y-60748D03*
X32695Y-54448D03*
X33445Y-54448D03*
G54D25*
X21653Y-52855D03*
X21653Y-52105D03*
G54D12*
X32695Y-52874D03*
X33445Y-52874D03*
G54D25*
X23228Y-52855D03*
X23228Y-52105D03*
X20078Y-59351D03*
X20078Y-58601D03*
G54D12*
X32695Y-49724D03*
X33445Y-49724D03*
X32695Y-51299D03*
X33445Y-51299D03*
G54D25*
X21653Y-59351D03*
X21653Y-58601D03*
X30314Y-41241D03*
X30314Y-40491D03*
X23228Y-59351D03*
X23228Y-58601D03*
G54D19*
X37448Y-44803D03*
G54D18*
X36448Y-44803D03*
X35448Y-44803D03*
X34448Y-44803D03*
X33448Y-44803D03*
X32448Y-44803D03*
X31448Y-44803D03*
G54D19*
X20087Y-39949D03*
G54D18*
X20087Y-40949D03*
X20087Y-41949D03*
X20087Y-42949D03*
X20087Y-43949D03*
G54D19*
X14370Y-38019D03*
G54D18*
X14370Y-37019D03*
G54D11*
X23228Y-61763D03*
X23228Y-57763D03*
X18700Y-44047D03*
X18700Y-40047D03*
X34283Y-59173D03*
X30283Y-59173D03*
X21653Y-49559D03*
X21653Y-45559D03*
X30283Y-56023D03*
X34283Y-56023D03*
X30283Y-60748D03*
X34283Y-60748D03*
X30283Y-57598D03*
X34283Y-57598D03*
X20078Y-49559D03*
X20078Y-45559D03*
X21653Y-55267D03*
X21653Y-51267D03*
X30283Y-54448D03*
X34283Y-54448D03*
X30283Y-51299D03*
X34283Y-51299D03*
X20078Y-55267D03*
X20078Y-51267D03*
X20078Y-61763D03*
X20078Y-57763D03*
X30283Y-52874D03*
X34283Y-52874D03*
X21653Y-61763D03*
X21653Y-57763D03*
X30283Y-49724D03*
X34283Y-49724D03*
X23228Y-55267D03*
X23228Y-51267D03*
G54D24*
X15763Y-46377D03*
X14763Y-46377D03*
X13763Y-46377D03*
X35842Y-37913D03*
X34842Y-37913D03*
X33842Y-37913D03*
X35842Y-41062D03*
X34842Y-41062D03*
X33842Y-41062D03*
X15763Y-43425D03*
X14763Y-43425D03*
X13763Y-43425D03*
X24712Y-37519D03*
X23712Y-37519D03*
G54D13*
X24712Y-43153D03*
G54D11*
X23712Y-43153D03*
X24712Y-42153D03*
X23712Y-42153D03*
X24712Y-41153D03*
X23712Y-41153D03*
X24712Y-40153D03*
X23712Y-40153D03*
G54D13*
X35433Y-46362D03*
G54D11*
X35433Y-47362D03*
X35433Y-48362D03*
G54D13*
X14173Y-39275D03*
G54D11*
X14173Y-40275D03*
X14173Y-41275D03*
G54D13*
X17519Y-44425D03*
G54D11*
X17519Y-43425D03*
X17519Y-42425D03*
G54D13*
X38295Y-56614D03*
G54D11*
X37295Y-56614D03*
G54D13*
X38295Y-59763D03*
G54D11*
X37295Y-59763D03*
G54D13*
X16732Y-38019D03*
G54D11*
X16732Y-37019D03*
G54D13*
X38295Y-50314D03*
G54D11*
X37295Y-50314D03*
G54D13*
X38295Y-53464D03*
G54D11*
X37295Y-53464D03*
G54D20*
X16507Y-52070D03*
X16507Y-54070D03*
X13757Y-54070D03*
X13757Y-52070D03*
X16507Y-55614D03*
X16507Y-57614D03*
X13757Y-57614D03*
X13757Y-55614D03*
X16507Y-48527D03*
X16507Y-50527D03*
X13757Y-50527D03*
X13757Y-48527D03*
X16507Y-59157D03*
X16507Y-61157D03*
X13757Y-61157D03*
X13757Y-59157D03*
G54D23*
X11811Y-53177D03*
X11811Y-52177D03*
X11811Y-56720D03*
X11811Y-55720D03*
X35129Y-53661D03*
X36129Y-53661D03*
X35129Y-59960D03*
X36129Y-59960D03*
X11811Y-49633D03*
X11811Y-48633D03*
X11811Y-60263D03*
X11811Y-59263D03*
X35129Y-50511D03*
X36129Y-50511D03*
X35129Y-56811D03*
X36129Y-56811D03*
G54D22*
X38354Y-60748D03*
X37236Y-60748D03*
X12370Y-50708D03*
X11252Y-50708D03*
X38354Y-51299D03*
X37236Y-51299D03*
X12370Y-61338D03*
X11252Y-61338D03*
X12370Y-57795D03*
X11252Y-57795D03*
X38354Y-57598D03*
X37236Y-57598D03*
X38354Y-54448D03*
X37236Y-54448D03*
X12370Y-54251D03*
X11252Y-54251D03*
G54D20*
X21653Y-40047D03*
G54D21*
X21653Y-44047D03*
G54D19*
X31496Y-37003D03*
G54D18*
X31496Y-40003D03*
X30314Y-41866D03*
X30314Y-39866D03*
G54D16*
X21472Y-37716D03*
G54D17*
X19472Y-37716D03*
G54D14*
X24653Y-61358D03*
G54D15*
X24653Y-60358D03*
X24653Y-59358D03*
X24653Y-58358D03*
X24653Y-57358D03*
X24653Y-56358D03*
X24653Y-55358D03*
X24653Y-54358D03*
X24653Y-53358D03*
X24653Y-52358D03*
X24653Y-51358D03*
X24653Y-50358D03*
X24653Y-49358D03*
X24653Y-48358D03*
X24653Y-47358D03*
X18653Y-47358D03*
X18653Y-48358D03*
X18653Y-49358D03*
X18653Y-50358D03*
X18653Y-51358D03*
X18653Y-52358D03*
X18653Y-53358D03*
X18653Y-54358D03*
X18653Y-55358D03*
X18653Y-56358D03*
X18653Y-57358D03*
X18653Y-58358D03*
X18653Y-59358D03*
X18653Y-60358D03*
X18653Y-61358D03*
G54D13*
X34251Y-46362D03*
G54D11*
X34251Y-47362D03*
X34251Y-48362D03*
G54D13*
X34834Y-61850D03*
G54D11*
X33834Y-61850D03*
X32834Y-61850D03*
X31834Y-61850D03*
X30834Y-61850D03*
G54D13*
X17559Y-60011D03*
G54D11*
X17559Y-61011D03*
G54D13*
X17559Y-56547D03*
G54D11*
X17559Y-57547D03*
G54D13*
X17559Y-52964D03*
G54D11*
X17559Y-53964D03*
G54D13*
X17559Y-49421D03*
G54D11*
X17559Y-50421D03*
G54D12*
X28957Y-63740D03*
X28207Y-63740D03*
G54D11*
X29716Y-63740D03*
X25716Y-63740D03*
M02*
