G04 (created by PCBNEW (22-Jun-2014 BZR 4027)-stable) date Fri 09 Oct 2015 01:46:11 PM CEST*
%MOIN*%
G04 Gerber Fmt 3.4, Leading zero omitted, Abs format*
%FSLAX34Y34*%
G01*
G70*
G90*
G04 APERTURE LIST*
%ADD10C,0.00590551*%
%ADD11C,0.00393701*%
G04 APERTURE END LIST*
G54D10*
G54D11*
X71062Y-37716D02*
G75*
G03X71062Y-37716I-787J0D01*
G74*
G01*
X96653Y-64055D02*
G75*
G03X96653Y-64055I-787J0D01*
G74*
G01*
X71062Y-64055D02*
G75*
G03X71062Y-64055I-787J0D01*
G74*
G01*
X96653Y-37716D02*
G75*
G03X96653Y-37716I-787J0D01*
G74*
G01*
X41929Y-37716D02*
G75*
G03X41929Y-37716I-787J0D01*
G74*
G01*
X67519Y-64055D02*
G75*
G03X67519Y-64055I-787J0D01*
G74*
G01*
X41929Y-64055D02*
G75*
G03X41929Y-64055I-787J0D01*
G74*
G01*
X67519Y-37716D02*
G75*
G03X67519Y-37716I-787J0D01*
G74*
G01*
X71062Y-7834D02*
G75*
G03X71062Y-7834I-787J0D01*
G74*
G01*
X96653Y-34173D02*
G75*
G03X96653Y-34173I-787J0D01*
G74*
G01*
X71062Y-34173D02*
G75*
G03X71062Y-34173I-787J0D01*
G74*
G01*
X96653Y-7834D02*
G75*
G03X96653Y-7834I-787J0D01*
G74*
G01*
X41929Y-7834D02*
G75*
G03X41929Y-7834I-787J0D01*
G74*
G01*
X67519Y-34173D02*
G75*
G03X67519Y-34173I-787J0D01*
G74*
G01*
X41929Y-34173D02*
G75*
G03X41929Y-34173I-787J0D01*
G74*
G01*
X67519Y-7834D02*
G75*
G03X67519Y-7834I-787J0D01*
G74*
G01*
X12795Y-7834D02*
G75*
G03X12795Y-7834I-787J0D01*
G74*
G01*
X38385Y-34173D02*
G75*
G03X38385Y-34173I-787J0D01*
G74*
G01*
X12795Y-34173D02*
G75*
G03X12795Y-34173I-787J0D01*
G74*
G01*
X38385Y-7834D02*
G75*
G03X38385Y-7834I-787J0D01*
G74*
G01*
X101377Y-6259D02*
X97440Y-6259D01*
X101377Y-65629D02*
X101377Y-6259D01*
X97440Y-65629D02*
X101377Y-65629D01*
X6496Y-65629D02*
X10433Y-65629D01*
X6496Y-6259D02*
X6496Y-65629D01*
X10433Y-6259D02*
X6496Y-6259D01*
X97440Y-65629D02*
X10433Y-65629D01*
X10433Y-6259D02*
X97440Y-6259D01*
X38385Y-37716D02*
G75*
G03X38385Y-37716I-787J0D01*
G74*
G01*
X12795Y-64055D02*
G75*
G03X12795Y-64055I-787J0D01*
G74*
G01*
X38385Y-64055D02*
G75*
G03X38385Y-64055I-787J0D01*
G74*
G01*
X12795Y-37716D02*
G75*
G03X12795Y-37716I-787J0D01*
G74*
G01*
M02*
