M48
;DRILL file {Pcbnew (22-Jun-2014 BZR 4027)-stable} date Fri 09 Oct 2015 01:47:08 PM CEST
;FORMAT={-:-/ absolute / inch / decimal}
FMAT,2
INCH,TZ
T1C0.020
T2C0.032
T3C0.039
T4C0.040
T5C0.045
T6C0.060
%
G90
G05
M72
T1
X1.6843Y-1.6335
X1.6843Y-4.6217
X1.7362Y-3.2205
X1.7362Y-6.2087
X1.9395Y-2.5986
X1.9395Y-5.5868
X1.9999Y-2.6508
X1.9999Y-5.639
X2.1425Y-2.6875
X2.1425Y-5.6757
X2.248Y-2.7323
X2.248Y-5.7205
X2.8346Y-2.4213
X2.8346Y-5.4094
X2.9252Y-3.0079
X2.9252Y-5.9961
X4.5977Y-1.6335
X4.5977Y-4.6217
X4.6496Y-3.2205
X4.6496Y-6.2087
X4.8529Y-2.5986
X4.8529Y-5.5868
X4.9133Y-2.6508
X4.9133Y-5.639
X5.0559Y-2.6875
X5.0559Y-5.6757
X5.1614Y-2.7323
X5.1614Y-5.7205
X5.748Y-2.4213
X5.748Y-5.4094
X5.8386Y-3.0079
X5.8386Y-5.9961
X7.5111Y-1.6335
X7.5111Y-4.6217
X7.563Y-3.2205
X7.563Y-6.2087
X7.7663Y-2.5986
X7.7663Y-5.5868
X7.8267Y-2.6508
X7.8267Y-5.639
X7.9693Y-2.6875
X7.9693Y-5.6757
X8.0748Y-2.7323
X8.0748Y-5.7205
X8.6614Y-2.4213
X8.6614Y-5.4094
X8.752Y-3.0079
X8.752Y-5.9961
T2
X1.1811Y-1.8752
X1.1811Y-1.9752
X1.1811Y-2.2295
X1.1811Y-2.3295
X1.1811Y-2.5839
X1.1811Y-2.6839
X1.1811Y-2.9382
X1.1811Y-3.0382
X1.1811Y-4.8634
X1.1811Y-4.9634
X1.1811Y-5.2177
X1.1811Y-5.3177
X1.1811Y-5.572
X1.1811Y-5.672
X1.1811Y-5.9264
X1.1811Y-6.0264
X1.437Y-0.7138
X1.437Y-0.8138
X1.437Y-3.702
X1.437Y-3.802
X1.8654Y-1.7476
X1.8654Y-1.8476
X1.8654Y-1.9476
X1.8654Y-2.0476
X1.8654Y-2.1476
X1.8654Y-2.2476
X1.8654Y-2.3476
X1.8654Y-2.4476
X1.8654Y-2.5476
X1.8654Y-2.6476
X1.8654Y-2.7476
X1.8654Y-2.8476
X1.8654Y-2.9476
X1.8654Y-3.0476
X1.8654Y-3.1476
X1.8654Y-4.7358
X1.8654Y-4.8358
X1.8654Y-4.9358
X1.8654Y-5.0358
X1.8654Y-5.1358
X1.8654Y-5.2358
X1.8654Y-5.3358
X1.8654Y-5.4358
X1.8654Y-5.5358
X1.8654Y-5.6358
X1.8654Y-5.7358
X1.8654Y-5.8358
X1.8654Y-5.9358
X1.8654Y-6.0358
X1.8654Y-6.1358
X1.8701Y-1.0165
X1.8701Y-1.4165
X1.8701Y-4.0047
X1.8701Y-4.4047
X2.0079Y-1.5677
X2.0079Y-1.9677
X2.0079Y-2.1386
X2.0079Y-2.5386
X2.0079Y-2.7882
X2.0079Y-3.1882
X2.0079Y-4.5559
X2.0079Y-4.9559
X2.0079Y-5.1268
X2.0079Y-5.5268
X2.0079Y-5.7764
X2.0079Y-6.1764
X2.0088Y-1.0067
X2.0088Y-1.1067
X2.0088Y-1.2067
X2.0088Y-1.3067
X2.0088Y-1.4067
X2.0088Y-3.9949
X2.0088Y-4.0949
X2.0088Y-4.1949
X2.0088Y-4.2949
X2.0088Y-4.3949
X2.1654Y-1.5677
X2.1654Y-1.9677
X2.1654Y-2.1386
X2.1654Y-2.5386
X2.1654Y-2.7882
X2.1654Y-3.1882
X2.1654Y-4.5559
X2.1654Y-4.9559
X2.1654Y-5.1268
X2.1654Y-5.5268
X2.1654Y-5.7764
X2.1654Y-6.1764
X2.3228Y-2.1386
X2.3228Y-2.5386
X2.3228Y-2.7882
X2.3228Y-3.1882
X2.3228Y-5.1268
X2.3228Y-5.5268
X2.3228Y-5.7764
X2.3228Y-6.1764
X2.4654Y-1.7476
X2.4654Y-1.8476
X2.4654Y-1.9476
X2.4654Y-2.0476
X2.4654Y-2.1476
X2.4654Y-2.2476
X2.4654Y-2.3476
X2.4654Y-2.4476
X2.4654Y-2.5476
X2.4654Y-2.6476
X2.4654Y-2.7476
X2.4654Y-2.8476
X2.4654Y-2.9476
X2.4654Y-3.0476
X2.4654Y-3.1476
X2.4654Y-4.7358
X2.4654Y-4.8358
X2.4654Y-4.9358
X2.4654Y-5.0358
X2.4654Y-5.1358
X2.4654Y-5.2358
X2.4654Y-5.3358
X2.4654Y-5.4358
X2.4654Y-5.5358
X2.4654Y-5.6358
X2.4654Y-5.7358
X2.4654Y-5.8358
X2.4654Y-5.9358
X2.4654Y-6.0358
X2.4654Y-6.1358
X2.5717Y-3.3858
X2.5717Y-6.374
X2.9717Y-3.3858
X2.9717Y-6.374
X3.0283Y-1.9843
X3.0283Y-2.1417
X3.0283Y-2.2992
X3.0283Y-2.4567
X3.0283Y-2.6142
X3.0283Y-2.7717
X3.0283Y-2.9291
X3.0283Y-3.0866
X3.0283Y-4.9724
X3.0283Y-5.1299
X3.0283Y-5.2874
X3.0283Y-5.4449
X3.0283Y-5.6024
X3.0283Y-5.7598
X3.0283Y-5.9173
X3.0283Y-6.0748
X3.0315Y-0.9984
X3.0315Y-1.1984
X3.0315Y-3.9866
X3.0315Y-4.1866
X3.1449Y-1.4921
X3.1449Y-4.4803
X3.1496Y-0.7122
X3.1496Y-1.0122
X3.1496Y-3.7004
X3.1496Y-4.0004
X3.2449Y-1.4921
X3.2449Y-4.4803
X3.3449Y-1.4921
X3.3449Y-4.4803
X3.4283Y-1.9843
X3.4283Y-2.1417
X3.4283Y-2.2992
X3.4283Y-2.4567
X3.4283Y-2.6142
X3.4283Y-2.7717
X3.4283Y-2.9291
X3.4283Y-3.0866
X3.4283Y-4.9724
X3.4283Y-5.1299
X3.4283Y-5.2874
X3.4283Y-5.4449
X3.4283Y-5.6024
X3.4283Y-5.7598
X3.4283Y-5.9173
X3.4283Y-6.0748
X3.4449Y-1.4921
X3.4449Y-4.4803
X3.513Y-2.063
X3.513Y-2.378
X3.513Y-2.6929
X3.513Y-3.0079
X3.513Y-5.0512
X3.513Y-5.3661
X3.513Y-5.6811
X3.513Y-5.9961
X3.5449Y-1.4921
X3.5449Y-4.4803
X3.613Y-2.063
X3.613Y-2.378
X3.613Y-2.6929
X3.613Y-3.0079
X3.613Y-5.0512
X3.613Y-5.3661
X3.613Y-5.6811
X3.613Y-5.9961
X3.6449Y-1.4921
X3.6449Y-4.4803
X3.7449Y-1.4921
X3.7449Y-4.4803
X4.0945Y-1.8752
X4.0945Y-1.9752
X4.0945Y-2.2295
X4.0945Y-2.3295
X4.0945Y-2.5839
X4.0945Y-2.6839
X4.0945Y-2.9382
X4.0945Y-3.0382
X4.0945Y-4.8634
X4.0945Y-4.9634
X4.0945Y-5.2177
X4.0945Y-5.3177
X4.0945Y-5.572
X4.0945Y-5.672
X4.0945Y-5.9264
X4.0945Y-6.0264
X4.3504Y-0.7138
X4.3504Y-0.8138
X4.3504Y-3.702
X4.3504Y-3.802
X4.7787Y-1.7476
X4.7787Y-1.8476
X4.7787Y-1.9476
X4.7787Y-2.0476
X4.7787Y-2.1476
X4.7787Y-2.2476
X4.7787Y-2.3476
X4.7787Y-2.4476
X4.7787Y-2.5476
X4.7787Y-2.6476
X4.7787Y-2.7476
X4.7787Y-2.8476
X4.7787Y-2.9476
X4.7787Y-3.0476
X4.7787Y-3.1476
X4.7787Y-4.7358
X4.7787Y-4.8358
X4.7787Y-4.9358
X4.7787Y-5.0358
X4.7787Y-5.1358
X4.7787Y-5.2358
X4.7787Y-5.3358
X4.7787Y-5.4358
X4.7787Y-5.5358
X4.7787Y-5.6358
X4.7787Y-5.7358
X4.7787Y-5.8358
X4.7787Y-5.9358
X4.7787Y-6.0358
X4.7787Y-6.1358
X4.7835Y-1.0165
X4.7835Y-1.4165
X4.7835Y-4.0047
X4.7835Y-4.4047
X4.9213Y-1.5677
X4.9213Y-1.9677
X4.9213Y-2.1386
X4.9213Y-2.5386
X4.9213Y-2.7882
X4.9213Y-3.1882
X4.9213Y-4.5559
X4.9213Y-4.9559
X4.9213Y-5.1268
X4.9213Y-5.5268
X4.9213Y-5.7764
X4.9213Y-6.1764
X4.9222Y-1.0067
X4.9222Y-1.1067
X4.9222Y-1.2067
X4.9222Y-1.3067
X4.9222Y-1.4067
X4.9222Y-3.9949
X4.9222Y-4.0949
X4.9222Y-4.1949
X4.9222Y-4.2949
X4.9222Y-4.3949
X5.0787Y-1.5677
X5.0787Y-1.9677
X5.0787Y-2.1386
X5.0787Y-2.5386
X5.0787Y-2.7882
X5.0787Y-3.1882
X5.0787Y-4.5559
X5.0787Y-4.9559
X5.0787Y-5.1268
X5.0787Y-5.5268
X5.0787Y-5.7764
X5.0787Y-6.1764
X5.2362Y-2.1386
X5.2362Y-2.5386
X5.2362Y-2.7882
X5.2362Y-3.1882
X5.2362Y-5.1268
X5.2362Y-5.5268
X5.2362Y-5.7764
X5.2362Y-6.1764
X5.3787Y-1.7476
X5.3787Y-1.8476
X5.3787Y-1.9476
X5.3787Y-2.0476
X5.3787Y-2.1476
X5.3787Y-2.2476
X5.3787Y-2.3476
X5.3787Y-2.4476
X5.3787Y-2.5476
X5.3787Y-2.6476
X5.3787Y-2.7476
X5.3787Y-2.8476
X5.3787Y-2.9476
X5.3787Y-3.0476
X5.3787Y-3.1476
X5.3787Y-4.7358
X5.3787Y-4.8358
X5.3787Y-4.9358
X5.3787Y-5.0358
X5.3787Y-5.1358
X5.3787Y-5.2358
X5.3787Y-5.3358
X5.3787Y-5.4358
X5.3787Y-5.5358
X5.3787Y-5.6358
X5.3787Y-5.7358
X5.3787Y-5.8358
X5.3787Y-5.9358
X5.3787Y-6.0358
X5.3787Y-6.1358
X5.485Y-3.3858
X5.485Y-6.374
X5.885Y-3.3858
X5.885Y-6.374
X5.9417Y-1.9843
X5.9417Y-2.1417
X5.9417Y-2.2992
X5.9417Y-2.4567
X5.9417Y-2.6142
X5.9417Y-2.7717
X5.9417Y-2.9291
X5.9417Y-3.0866
X5.9417Y-4.9724
X5.9417Y-5.1299
X5.9417Y-5.2874
X5.9417Y-5.4449
X5.9417Y-5.6024
X5.9417Y-5.7598
X5.9417Y-5.9173
X5.9417Y-6.0748
X5.9449Y-0.9984
X5.9449Y-1.1984
X5.9449Y-3.9866
X5.9449Y-4.1866
X6.0583Y-1.4921
X6.0583Y-4.4803
X6.063Y-0.7122
X6.063Y-1.0122
X6.063Y-3.7004
X6.063Y-4.0004
X6.1583Y-1.4921
X6.1583Y-4.4803
X6.2583Y-1.4921
X6.2583Y-4.4803
X6.3417Y-1.9843
X6.3417Y-2.1417
X6.3417Y-2.2992
X6.3417Y-2.4567
X6.3417Y-2.6142
X6.3417Y-2.7717
X6.3417Y-2.9291
X6.3417Y-3.0866
X6.3417Y-4.9724
X6.3417Y-5.1299
X6.3417Y-5.2874
X6.3417Y-5.4449
X6.3417Y-5.6024
X6.3417Y-5.7598
X6.3417Y-5.9173
X6.3417Y-6.0748
X6.3583Y-1.4921
X6.3583Y-4.4803
X6.4264Y-2.063
X6.4264Y-2.378
X6.4264Y-2.6929
X6.4264Y-3.0079
X6.4264Y-5.0512
X6.4264Y-5.3661
X6.4264Y-5.6811
X6.4264Y-5.9961
X6.4583Y-1.4921
X6.4583Y-4.4803
X6.5264Y-2.063
X6.5264Y-2.378
X6.5264Y-2.6929
X6.5264Y-3.0079
X6.5264Y-5.0512
X6.5264Y-5.3661
X6.5264Y-5.6811
X6.5264Y-5.9961
X6.5583Y-1.4921
X6.5583Y-4.4803
X6.6583Y-1.4921
X6.6583Y-4.4803
X7.0079Y-1.8752
X7.0079Y-1.9752
X7.0079Y-2.2295
X7.0079Y-2.3295
X7.0079Y-2.5839
X7.0079Y-2.6839
X7.0079Y-2.9382
X7.0079Y-3.0382
X7.0079Y-4.8634
X7.0079Y-4.9634
X7.0079Y-5.2177
X7.0079Y-5.3177
X7.0079Y-5.572
X7.0079Y-5.672
X7.0079Y-5.9264
X7.0079Y-6.0264
X7.2638Y-0.7138
X7.2638Y-0.8138
X7.2638Y-3.702
X7.2638Y-3.802
X7.6921Y-1.7476
X7.6921Y-1.8476
X7.6921Y-1.9476
X7.6921Y-2.0476
X7.6921Y-2.1476
X7.6921Y-2.2476
X7.6921Y-2.3476
X7.6921Y-2.4476
X7.6921Y-2.5476
X7.6921Y-2.6476
X7.6921Y-2.7476
X7.6921Y-2.8476
X7.6921Y-2.9476
X7.6921Y-3.0476
X7.6921Y-3.1476
X7.6921Y-4.7358
X7.6921Y-4.8358
X7.6921Y-4.9358
X7.6921Y-5.0358
X7.6921Y-5.1358
X7.6921Y-5.2358
X7.6921Y-5.3358
X7.6921Y-5.4358
X7.6921Y-5.5358
X7.6921Y-5.6358
X7.6921Y-5.7358
X7.6921Y-5.8358
X7.6921Y-5.9358
X7.6921Y-6.0358
X7.6921Y-6.1358
X7.6969Y-1.0165
X7.6969Y-1.4165
X7.6969Y-4.0047
X7.6969Y-4.4047
X7.8346Y-1.5677
X7.8346Y-1.9677
X7.8346Y-2.1386
X7.8346Y-2.5386
X7.8346Y-2.7882
X7.8346Y-3.1882
X7.8346Y-4.5559
X7.8346Y-4.9559
X7.8346Y-5.1268
X7.8346Y-5.5268
X7.8346Y-5.7764
X7.8346Y-6.1764
X7.8356Y-1.0067
X7.8356Y-1.1067
X7.8356Y-1.2067
X7.8356Y-1.3067
X7.8356Y-1.4067
X7.8356Y-3.9949
X7.8356Y-4.0949
X7.8356Y-4.1949
X7.8356Y-4.2949
X7.8356Y-4.3949
X7.9921Y-1.5677
X7.9921Y-1.9677
X7.9921Y-2.1386
X7.9921Y-2.5386
X7.9921Y-2.7882
X7.9921Y-3.1882
X7.9921Y-4.5559
X7.9921Y-4.9559
X7.9921Y-5.1268
X7.9921Y-5.5268
X7.9921Y-5.7764
X7.9921Y-6.1764
X8.1496Y-2.1386
X8.1496Y-2.5386
X8.1496Y-2.7882
X8.1496Y-3.1882
X8.1496Y-5.1268
X8.1496Y-5.5268
X8.1496Y-5.7764
X8.1496Y-6.1764
X8.2921Y-1.7476
X8.2921Y-1.8476
X8.2921Y-1.9476
X8.2921Y-2.0476
X8.2921Y-2.1476
X8.2921Y-2.2476
X8.2921Y-2.3476
X8.2921Y-2.4476
X8.2921Y-2.5476
X8.2921Y-2.6476
X8.2921Y-2.7476
X8.2921Y-2.8476
X8.2921Y-2.9476
X8.2921Y-3.0476
X8.2921Y-3.1476
X8.2921Y-4.7358
X8.2921Y-4.8358
X8.2921Y-4.9358
X8.2921Y-5.0358
X8.2921Y-5.1358
X8.2921Y-5.2358
X8.2921Y-5.3358
X8.2921Y-5.4358
X8.2921Y-5.5358
X8.2921Y-5.6358
X8.2921Y-5.7358
X8.2921Y-5.8358
X8.2921Y-5.9358
X8.2921Y-6.0358
X8.2921Y-6.1358
X8.3984Y-3.3858
X8.3984Y-6.374
X8.7984Y-3.3858
X8.7984Y-6.374
X8.8551Y-1.9843
X8.8551Y-2.1417
X8.8551Y-2.2992
X8.8551Y-2.4567
X8.8551Y-2.6142
X8.8551Y-2.7717
X8.8551Y-2.9291
X8.8551Y-3.0866
X8.8551Y-4.9724
X8.8551Y-5.1299
X8.8551Y-5.2874
X8.8551Y-5.4449
X8.8551Y-5.6024
X8.8551Y-5.7598
X8.8551Y-5.9173
X8.8551Y-6.0748
X8.8583Y-0.9984
X8.8583Y-1.1984
X8.8583Y-3.9866
X8.8583Y-4.1866
X8.9717Y-1.4921
X8.9717Y-4.4803
X8.9764Y-0.7122
X8.9764Y-1.0122
X8.9764Y-3.7004
X8.9764Y-4.0004
X9.0717Y-1.4921
X9.0717Y-4.4803
X9.1717Y-1.4921
X9.1717Y-4.4803
X9.2551Y-1.9843
X9.2551Y-2.1417
X9.2551Y-2.2992
X9.2551Y-2.4567
X9.2551Y-2.6142
X9.2551Y-2.7717
X9.2551Y-2.9291
X9.2551Y-3.0866
X9.2551Y-4.9724
X9.2551Y-5.1299
X9.2551Y-5.2874
X9.2551Y-5.4449
X9.2551Y-5.6024
X9.2551Y-5.7598
X9.2551Y-5.9173
X9.2551Y-6.0748
X9.2717Y-1.4921
X9.2717Y-4.4803
X9.3398Y-2.063
X9.3398Y-2.378
X9.3398Y-2.6929
X9.3398Y-3.0079
X9.3398Y-5.0512
X9.3398Y-5.3661
X9.3398Y-5.6811
X9.3398Y-5.9961
X9.3717Y-1.4921
X9.3717Y-4.4803
X9.4398Y-2.063
X9.4398Y-2.378
X9.4398Y-2.6929
X9.4398Y-3.0079
X9.4398Y-5.0512
X9.4398Y-5.3661
X9.4398Y-5.6811
X9.4398Y-5.9961
X9.4717Y-1.4921
X9.4717Y-4.4803
X9.5717Y-1.4921
X9.5717Y-4.4803
T3
X1.3764Y-1.3543
X1.3764Y-1.6496
X1.3764Y-4.3425
X1.3764Y-4.6378
X1.4764Y-1.3543
X1.4764Y-1.6496
X1.4764Y-4.3425
X1.4764Y-4.6378
X1.5764Y-1.3543
X1.5764Y-1.6496
X1.5764Y-4.3425
X1.5764Y-4.6378
X2.3713Y-0.7638
X2.3713Y-3.752
X2.4713Y-0.7638
X2.4713Y-3.752
X2.7256Y-0.9091
X2.7256Y-1.0091
X2.7256Y-1.1091
X2.7256Y-1.2091
X2.7256Y-1.7646
X2.7256Y-1.8646
X2.7256Y-1.9646
X2.7256Y-2.0646
X2.7256Y-2.1646
X2.7256Y-2.7094
X2.7256Y-2.8094
X2.7256Y-2.9094
X2.7256Y-3.0094
X2.7256Y-3.1094
X2.7256Y-3.8972
X2.7256Y-3.9972
X2.7256Y-4.0972
X2.7256Y-4.1972
X2.7256Y-4.7528
X2.7256Y-4.8528
X2.7256Y-4.9528
X2.7256Y-5.0528
X2.7256Y-5.1528
X2.7256Y-5.6976
X2.7256Y-5.7976
X2.7256Y-5.8976
X2.7256Y-5.9976
X2.7256Y-6.0976
X2.8256Y-0.9091
X2.8256Y-1.0091
X2.8256Y-1.1091
X2.8256Y-1.2091
X2.8256Y-1.7646
X2.8256Y-1.8646
X2.8256Y-1.9646
X2.8256Y-2.0646
X2.8256Y-2.1646
X2.8256Y-2.7094
X2.8256Y-2.8094
X2.8256Y-2.9094
X2.8256Y-3.0094
X2.8256Y-3.1094
X2.8256Y-3.8972
X2.8256Y-3.9972
X2.8256Y-4.0972
X2.8256Y-4.1972
X2.8256Y-4.7528
X2.8256Y-4.8528
X2.8256Y-4.9528
X2.8256Y-5.0528
X2.8256Y-5.1528
X2.8256Y-5.6976
X2.8256Y-5.7976
X2.8256Y-5.8976
X2.8256Y-5.9976
X2.8256Y-6.0976
X3.3843Y-0.8031
X3.3843Y-1.1181
X3.3843Y-3.7913
X3.3843Y-4.1063
X3.4843Y-0.8031
X3.4843Y-1.1181
X3.4843Y-3.7913
X3.4843Y-4.1063
X3.5843Y-0.8031
X3.5843Y-1.1181
X3.5843Y-3.7913
X3.5843Y-4.1063
X4.2898Y-1.3543
X4.2898Y-1.6496
X4.2898Y-4.3425
X4.2898Y-4.6378
X4.3898Y-1.3543
X4.3898Y-1.6496
X4.3898Y-4.3425
X4.3898Y-4.6378
X4.4898Y-1.3543
X4.4898Y-1.6496
X4.4898Y-4.3425
X4.4898Y-4.6378
X5.2846Y-0.7638
X5.2846Y-3.752
X5.3846Y-0.7638
X5.3846Y-3.752
X5.639Y-0.9091
X5.639Y-1.0091
X5.639Y-1.1091
X5.639Y-1.2091
X5.639Y-1.7646
X5.639Y-1.8646
X5.639Y-1.9646
X5.639Y-2.0646
X5.639Y-2.1646
X5.639Y-2.7094
X5.639Y-2.8094
X5.639Y-2.9094
X5.639Y-3.0094
X5.639Y-3.1094
X5.639Y-3.8972
X5.639Y-3.9972
X5.639Y-4.0972
X5.639Y-4.1972
X5.639Y-4.7528
X5.639Y-4.8528
X5.639Y-4.9528
X5.639Y-5.0528
X5.639Y-5.1528
X5.639Y-5.6976
X5.639Y-5.7976
X5.639Y-5.8976
X5.639Y-5.9976
X5.639Y-6.0976
X5.739Y-0.9091
X5.739Y-1.0091
X5.739Y-1.1091
X5.739Y-1.2091
X5.739Y-1.7646
X5.739Y-1.8646
X5.739Y-1.9646
X5.739Y-2.0646
X5.739Y-2.1646
X5.739Y-2.7094
X5.739Y-2.8094
X5.739Y-2.9094
X5.739Y-3.0094
X5.739Y-3.1094
X5.739Y-3.8972
X5.739Y-3.9972
X5.739Y-4.0972
X5.739Y-4.1972
X5.739Y-4.7528
X5.739Y-4.8528
X5.739Y-4.9528
X5.739Y-5.0528
X5.739Y-5.1528
X5.739Y-5.6976
X5.739Y-5.7976
X5.739Y-5.8976
X5.739Y-5.9976
X5.739Y-6.0976
X6.2976Y-0.8031
X6.2976Y-1.1181
X6.2976Y-3.7913
X6.2976Y-4.1063
X6.3976Y-0.8031
X6.3976Y-1.1181
X6.3976Y-3.7913
X6.3976Y-4.1063
X6.4976Y-0.8031
X6.4976Y-1.1181
X6.4976Y-3.7913
X6.4976Y-4.1063
X7.2031Y-1.3543
X7.2031Y-1.6496
X7.2031Y-4.3425
X7.2031Y-4.6378
X7.3031Y-1.3543
X7.3031Y-1.6496
X7.3031Y-4.3425
X7.3031Y-4.6378
X7.4031Y-1.3543
X7.4031Y-1.6496
X7.4031Y-4.3425
X7.4031Y-4.6378
X8.198Y-0.7638
X8.198Y-3.752
X8.298Y-0.7638
X8.298Y-3.752
X8.5524Y-0.9091
X8.5524Y-1.0091
X8.5524Y-1.1091
X8.5524Y-1.2091
X8.5524Y-1.7646
X8.5524Y-1.8646
X8.5524Y-1.9646
X8.5524Y-2.0646
X8.5524Y-2.1646
X8.5524Y-2.7094
X8.5524Y-2.8094
X8.5524Y-2.9094
X8.5524Y-3.0094
X8.5524Y-3.1094
X8.5524Y-3.8972
X8.5524Y-3.9972
X8.5524Y-4.0972
X8.5524Y-4.1972
X8.5524Y-4.7528
X8.5524Y-4.8528
X8.5524Y-4.9528
X8.5524Y-5.0528
X8.5524Y-5.1528
X8.5524Y-5.6976
X8.5524Y-5.7976
X8.5524Y-5.8976
X8.5524Y-5.9976
X8.5524Y-6.0976
X8.6524Y-0.9091
X8.6524Y-1.0091
X8.6524Y-1.1091
X8.6524Y-1.2091
X8.6524Y-1.7646
X8.6524Y-1.8646
X8.6524Y-1.9646
X8.6524Y-2.0646
X8.6524Y-2.1646
X8.6524Y-2.7094
X8.6524Y-2.8094
X8.6524Y-2.9094
X8.6524Y-3.0094
X8.6524Y-3.1094
X8.6524Y-3.8972
X8.6524Y-3.9972
X8.6524Y-4.0972
X8.6524Y-4.1972
X8.6524Y-4.7528
X8.6524Y-4.8528
X8.6524Y-4.9528
X8.6524Y-5.0528
X8.6524Y-5.1528
X8.6524Y-5.6976
X8.6524Y-5.7976
X8.6524Y-5.8976
X8.6524Y-5.9976
X8.6524Y-6.0976
X9.211Y-0.8031
X9.211Y-1.1181
X9.211Y-3.7913
X9.211Y-4.1063
X9.311Y-0.8031
X9.311Y-1.1181
X9.311Y-3.7913
X9.311Y-4.1063
X9.411Y-0.8031
X9.411Y-1.1181
X9.411Y-3.7913
X9.411Y-4.1063
T4
X1.4173Y-0.9394
X1.4173Y-1.0394
X1.4173Y-1.1394
X1.4173Y-3.9276
X1.4173Y-4.0276
X1.4173Y-4.1276
X1.6732Y-0.7138
X1.6732Y-0.8138
X1.6732Y-3.702
X1.6732Y-3.802
X1.752Y-1.2543
X1.752Y-1.3543
X1.752Y-1.4543
X1.752Y-4.2425
X1.752Y-4.3425
X1.752Y-4.4425
X1.7559Y-1.9539
X1.7559Y-2.0539
X1.7559Y-2.3083
X1.7559Y-2.4083
X1.7559Y-2.6665
X1.7559Y-2.7665
X1.7559Y-3.013
X1.7559Y-3.113
X1.7559Y-4.9421
X1.7559Y-5.0421
X1.7559Y-5.2965
X1.7559Y-5.3965
X1.7559Y-5.6547
X1.7559Y-5.7547
X1.7559Y-6.0012
X1.7559Y-6.1012
X2.1654Y-1.0165
X2.1654Y-1.4165
X2.1654Y-4.0047
X2.1654Y-4.4047
X2.3713Y-1.0272
X2.3713Y-1.1272
X2.3713Y-1.2272
X2.3713Y-1.3272
X2.3713Y-4.0154
X2.3713Y-4.1154
X2.3713Y-4.2154
X2.3713Y-4.3154
X2.4713Y-1.0272
X2.4713Y-1.1272
X2.4713Y-1.2272
X2.4713Y-1.3272
X2.4713Y-4.0154
X2.4713Y-4.1154
X2.4713Y-4.2154
X2.4713Y-4.3154
X3.0835Y-3.1969
X3.0835Y-6.185
X3.1835Y-3.1969
X3.1835Y-6.185
X3.2835Y-3.1969
X3.2835Y-6.185
X3.3835Y-3.1969
X3.3835Y-6.185
X3.4252Y-1.648
X3.4252Y-1.748
X3.4252Y-1.848
X3.4252Y-4.6362
X3.4252Y-4.7362
X3.4252Y-4.8362
X3.4835Y-3.1969
X3.4835Y-6.185
X3.5433Y-1.648
X3.5433Y-1.748
X3.5433Y-1.848
X3.5433Y-4.6362
X3.5433Y-4.7362
X3.5433Y-4.8362
X3.7295Y-2.0433
X3.7295Y-2.3583
X3.7295Y-2.6732
X3.7295Y-2.9882
X3.7295Y-5.0315
X3.7295Y-5.3465
X3.7295Y-5.6614
X3.7295Y-5.9764
X3.8295Y-2.0433
X3.8295Y-2.3583
X3.8295Y-2.6732
X3.8295Y-2.9882
X3.8295Y-5.0315
X3.8295Y-5.3465
X3.8295Y-5.6614
X3.8295Y-5.9764
X4.3307Y-0.9394
X4.3307Y-1.0394
X4.3307Y-1.1394
X4.3307Y-3.9276
X4.3307Y-4.0276
X4.3307Y-4.1276
X4.5866Y-0.7138
X4.5866Y-0.8138
X4.5866Y-3.702
X4.5866Y-3.802
X4.6654Y-1.2543
X4.6654Y-1.3543
X4.6654Y-1.4543
X4.6654Y-4.2425
X4.6654Y-4.3425
X4.6654Y-4.4425
X4.6693Y-1.9539
X4.6693Y-2.0539
X4.6693Y-2.3083
X4.6693Y-2.4083
X4.6693Y-2.6665
X4.6693Y-2.7665
X4.6693Y-3.013
X4.6693Y-3.113
X4.6693Y-4.9421
X4.6693Y-5.0421
X4.6693Y-5.2965
X4.6693Y-5.3965
X4.6693Y-5.6547
X4.6693Y-5.7547
X4.6693Y-6.0012
X4.6693Y-6.1012
X5.0787Y-1.0165
X5.0787Y-1.4165
X5.0787Y-4.0047
X5.0787Y-4.4047
X5.2846Y-1.0272
X5.2846Y-1.1272
X5.2846Y-1.2272
X5.2846Y-1.3272
X5.2846Y-4.0154
X5.2846Y-4.1154
X5.2846Y-4.2154
X5.2846Y-4.3154
X5.3846Y-1.0272
X5.3846Y-1.1272
X5.3846Y-1.2272
X5.3846Y-1.3272
X5.3846Y-4.0154
X5.3846Y-4.1154
X5.3846Y-4.2154
X5.3846Y-4.3154
X5.9969Y-3.1969
X5.9969Y-6.185
X6.0969Y-3.1969
X6.0969Y-6.185
X6.1969Y-3.1969
X6.1969Y-6.185
X6.2969Y-3.1969
X6.2969Y-6.185
X6.3386Y-1.648
X6.3386Y-1.748
X6.3386Y-1.848
X6.3386Y-4.6362
X6.3386Y-4.7362
X6.3386Y-4.8362
X6.3969Y-3.1969
X6.3969Y-6.185
X6.4567Y-1.648
X6.4567Y-1.748
X6.4567Y-1.848
X6.4567Y-4.6362
X6.4567Y-4.7362
X6.4567Y-4.8362
X6.6429Y-2.0433
X6.6429Y-2.3583
X6.6429Y-2.6732
X6.6429Y-2.9882
X6.6429Y-5.0315
X6.6429Y-5.3465
X6.6429Y-5.6614
X6.6429Y-5.9764
X6.7429Y-2.0433
X6.7429Y-2.3583
X6.7429Y-2.6732
X6.7429Y-2.9882
X6.7429Y-5.0315
X6.7429Y-5.3465
X6.7429Y-5.6614
X6.7429Y-5.9764
X7.2441Y-0.9394
X7.2441Y-1.0394
X7.2441Y-1.1394
X7.2441Y-3.9276
X7.2441Y-4.0276
X7.2441Y-4.1276
X7.5Y-0.7138
X7.5Y-0.8138
X7.5Y-3.702
X7.5Y-3.802
X7.5787Y-1.2543
X7.5787Y-1.3543
X7.5787Y-1.4543
X7.5787Y-4.2425
X7.5787Y-4.3425
X7.5787Y-4.4425
X7.5827Y-1.9539
X7.5827Y-2.0539
X7.5827Y-2.3083
X7.5827Y-2.4083
X7.5827Y-2.6665
X7.5827Y-2.7665
X7.5827Y-3.013
X7.5827Y-3.113
X7.5827Y-4.9421
X7.5827Y-5.0421
X7.5827Y-5.2965
X7.5827Y-5.3965
X7.5827Y-5.6547
X7.5827Y-5.7547
X7.5827Y-6.0012
X7.5827Y-6.1012
X7.9921Y-1.0165
X7.9921Y-1.4165
X7.9921Y-4.0047
X7.9921Y-4.4047
X8.198Y-1.0272
X8.198Y-1.1272
X8.198Y-1.2272
X8.198Y-1.3272
X8.198Y-4.0154
X8.198Y-4.1154
X8.198Y-4.2154
X8.198Y-4.3154
X8.298Y-1.0272
X8.298Y-1.1272
X8.298Y-1.2272
X8.298Y-1.3272
X8.298Y-4.0154
X8.298Y-4.1154
X8.298Y-4.2154
X8.298Y-4.3154
X8.9102Y-3.1969
X8.9102Y-6.185
X9.0102Y-3.1969
X9.0102Y-6.185
X9.1102Y-3.1969
X9.1102Y-6.185
X9.2102Y-3.1969
X9.2102Y-6.185
X9.252Y-1.648
X9.252Y-1.748
X9.252Y-1.848
X9.252Y-4.6362
X9.252Y-4.7362
X9.252Y-4.8362
X9.3102Y-3.1969
X9.3102Y-6.185
X9.3701Y-1.648
X9.3701Y-1.748
X9.3701Y-1.848
X9.3701Y-4.6362
X9.3701Y-4.7362
X9.3701Y-4.8362
X9.5563Y-2.0433
X9.5563Y-2.3583
X9.5563Y-2.6732
X9.5563Y-2.9882
X9.5563Y-5.0315
X9.5563Y-5.3465
X9.5563Y-5.6614
X9.5563Y-5.9764
X9.6563Y-2.0433
X9.6563Y-2.3583
X9.6563Y-2.6732
X9.6563Y-2.9882
X9.6563Y-5.0315
X9.6563Y-5.3465
X9.6563Y-5.6614
X9.6563Y-5.9764
T5
X1.3757Y-1.8646
X1.3757Y-2.0646
X1.3757Y-2.2189
X1.3757Y-2.4189
X1.3757Y-2.5732
X1.3757Y-2.7732
X1.3757Y-2.9276
X1.3757Y-3.1276
X1.3757Y-4.8528
X1.3757Y-5.0528
X1.3757Y-5.2071
X1.3757Y-5.4071
X1.3757Y-5.5614
X1.3757Y-5.7614
X1.3757Y-5.9157
X1.3757Y-6.1157
X1.6507Y-1.8646
X1.6507Y-2.0646
X1.6507Y-2.2189
X1.6507Y-2.4189
X1.6507Y-2.5732
X1.6507Y-2.7732
X1.6507Y-2.9276
X1.6507Y-3.1276
X1.6507Y-4.8528
X1.6507Y-5.0528
X1.6507Y-5.2071
X1.6507Y-5.4071
X1.6507Y-5.5614
X1.6507Y-5.7614
X1.6507Y-5.9157
X1.6507Y-6.1157
X4.2891Y-1.8646
X4.2891Y-2.0646
X4.2891Y-2.2189
X4.2891Y-2.4189
X4.2891Y-2.5732
X4.2891Y-2.7732
X4.2891Y-2.9276
X4.2891Y-3.1276
X4.2891Y-4.8528
X4.2891Y-5.0528
X4.2891Y-5.2071
X4.2891Y-5.4071
X4.2891Y-5.5614
X4.2891Y-5.7614
X4.2891Y-5.9157
X4.2891Y-6.1157
X4.5641Y-1.8646
X4.5641Y-2.0646
X4.5641Y-2.2189
X4.5641Y-2.4189
X4.5641Y-2.5732
X4.5641Y-2.7732
X4.5641Y-2.9276
X4.5641Y-3.1276
X4.5641Y-4.8528
X4.5641Y-5.0528
X4.5641Y-5.2071
X4.5641Y-5.4071
X4.5641Y-5.5614
X4.5641Y-5.7614
X4.5641Y-5.9157
X4.5641Y-6.1157
X7.2025Y-1.8646
X7.2025Y-2.0646
X7.2025Y-2.2189
X7.2025Y-2.4189
X7.2025Y-2.5732
X7.2025Y-2.7732
X7.2025Y-2.9276
X7.2025Y-3.1276
X7.2025Y-4.8528
X7.2025Y-5.0528
X7.2025Y-5.2071
X7.2025Y-5.4071
X7.2025Y-5.5614
X7.2025Y-5.7614
X7.2025Y-5.9157
X7.2025Y-6.1157
X7.4775Y-1.8646
X7.4775Y-2.0646
X7.4775Y-2.2189
X7.4775Y-2.4189
X7.4775Y-2.5732
X7.4775Y-2.7732
X7.4775Y-2.9276
X7.4775Y-3.1276
X7.4775Y-4.8528
X7.4775Y-5.0528
X7.4775Y-5.2071
X7.4775Y-5.4071
X7.4775Y-5.5614
X7.4775Y-5.7614
X7.4775Y-5.9157
X7.4775Y-6.1157
T6
X1.9472Y-0.7835
X1.9472Y-3.7717
X2.1472Y-0.7835
X2.1472Y-3.7717
X4.8606Y-0.7835
X4.8606Y-3.7717
X5.0606Y-0.7835
X5.0606Y-3.7717
X7.774Y-0.7835
X7.774Y-3.7717
X7.974Y-0.7835
X7.974Y-3.7717
T0
M30
