G04 (created by PCBNEW (22-Jun-2014 BZR 4027)-stable) date Sat 10 Oct 2015 09:17:52 PM CEST*
%MOIN*%
G04 Gerber Fmt 3.4, Leading zero omitted, Abs format*
%FSLAX34Y34*%
G01*
G70*
G90*
G04 APERTURE LIST*
%ADD10C,0.00590551*%
%ADD11C,0.0593*%
%ADD12R,0.055X0.055*%
%ADD13C,0.055*%
%ADD14C,0.06*%
%ADD15O,0.0593X0.1187*%
%ADD16R,0.06X0.06*%
%ADD17C,0.07*%
%ADD18C,0.066*%
%ADD19R,0.07X0.07*%
%ADD20R,0.1X0.1*%
%ADD21C,0.1*%
%ADD22R,0.09X0.062*%
%ADD23O,0.09X0.062*%
G04 APERTURE END LIST*
G54D10*
G54D11*
X52059Y-32055D03*
X53059Y-32055D03*
X52059Y-33055D03*
X53059Y-33055D03*
X52059Y-34055D03*
X53059Y-34055D03*
X52059Y-35055D03*
X53059Y-35055D03*
X52059Y-36055D03*
X53059Y-36055D03*
X52059Y-22606D03*
X53059Y-22606D03*
X52059Y-23606D03*
X53059Y-23606D03*
X52059Y-24606D03*
X53059Y-24606D03*
X52059Y-25606D03*
X53059Y-25606D03*
X52059Y-26606D03*
X53059Y-26606D03*
X53059Y-17051D03*
X52059Y-17051D03*
X53059Y-16051D03*
X52059Y-16051D03*
X53059Y-15051D03*
X52059Y-15051D03*
X53059Y-14051D03*
X52059Y-14051D03*
G54D12*
X62251Y-19881D03*
G54D13*
X61251Y-19881D03*
X60251Y-19881D03*
X59251Y-19881D03*
X58251Y-19881D03*
X57251Y-19881D03*
X56251Y-19881D03*
G54D12*
X44891Y-15028D03*
G54D13*
X44891Y-16028D03*
X44891Y-17028D03*
X44891Y-18028D03*
X44891Y-19028D03*
G54D12*
X39173Y-13098D03*
G54D13*
X39173Y-12098D03*
G54D14*
X48031Y-36842D03*
X48031Y-32842D03*
X43503Y-19125D03*
X43503Y-15125D03*
X59086Y-34251D03*
X55086Y-34251D03*
X46456Y-24637D03*
X46456Y-20637D03*
X55086Y-31102D03*
X59086Y-31102D03*
X55086Y-35826D03*
X59086Y-35826D03*
X55086Y-32677D03*
X59086Y-32677D03*
X44881Y-24637D03*
X44881Y-20637D03*
X46456Y-30346D03*
X46456Y-26346D03*
X55086Y-29527D03*
X59086Y-29527D03*
X55086Y-26377D03*
X59086Y-26377D03*
X44881Y-30346D03*
X44881Y-26346D03*
X44881Y-36842D03*
X44881Y-32842D03*
X55086Y-27952D03*
X59086Y-27952D03*
X46456Y-36842D03*
X46456Y-32842D03*
X55086Y-24803D03*
X59086Y-24803D03*
X48031Y-30346D03*
X48031Y-26346D03*
G54D15*
X40566Y-21456D03*
X39566Y-21456D03*
X38566Y-21456D03*
X60645Y-12992D03*
X59645Y-12992D03*
X58645Y-12992D03*
X60645Y-16141D03*
X59645Y-16141D03*
X58645Y-16141D03*
X40566Y-18503D03*
X39566Y-18503D03*
X38566Y-18503D03*
X49515Y-12598D03*
X48515Y-12598D03*
G54D16*
X49515Y-18232D03*
G54D14*
X48515Y-18232D03*
X49515Y-17232D03*
X48515Y-17232D03*
X49515Y-16232D03*
X48515Y-16232D03*
X49515Y-15232D03*
X48515Y-15232D03*
G54D16*
X60236Y-21440D03*
G54D14*
X60236Y-22440D03*
X60236Y-23440D03*
G54D16*
X38976Y-14354D03*
G54D14*
X38976Y-15354D03*
X38976Y-16354D03*
G54D16*
X42322Y-19503D03*
G54D14*
X42322Y-18503D03*
X42322Y-17503D03*
G54D16*
X63098Y-31692D03*
G54D14*
X62098Y-31692D03*
G54D16*
X63098Y-34842D03*
G54D14*
X62098Y-34842D03*
G54D16*
X41535Y-13098D03*
G54D14*
X41535Y-12098D03*
G54D16*
X63098Y-25393D03*
G54D14*
X62098Y-25393D03*
G54D16*
X63098Y-28543D03*
G54D14*
X62098Y-28543D03*
G54D17*
X41310Y-27149D03*
X41310Y-29149D03*
X38560Y-29149D03*
X38560Y-27149D03*
X41310Y-30692D03*
X41310Y-32692D03*
X38560Y-32692D03*
X38560Y-30692D03*
X41310Y-23606D03*
X41310Y-25606D03*
X38560Y-25606D03*
X38560Y-23606D03*
X41310Y-34236D03*
X41310Y-36236D03*
X38560Y-36236D03*
X38560Y-34236D03*
G54D18*
X36614Y-28255D03*
X36614Y-27255D03*
X36614Y-31799D03*
X36614Y-30799D03*
X59933Y-28740D03*
X60933Y-28740D03*
X59933Y-35039D03*
X60933Y-35039D03*
X36614Y-24712D03*
X36614Y-23712D03*
X36614Y-35342D03*
X36614Y-34342D03*
X59933Y-25590D03*
X60933Y-25590D03*
X59933Y-31889D03*
X60933Y-31889D03*
G54D17*
X46456Y-15125D03*
G54D19*
X46456Y-19125D03*
G54D12*
X56299Y-12082D03*
G54D13*
X56299Y-15082D03*
X55118Y-16944D03*
X55118Y-14944D03*
G54D20*
X46275Y-12795D03*
G54D21*
X44275Y-12795D03*
G54D22*
X49456Y-36437D03*
G54D23*
X49456Y-35437D03*
X49456Y-34437D03*
X49456Y-33437D03*
X49456Y-32437D03*
X49456Y-31437D03*
X49456Y-30437D03*
X49456Y-29437D03*
X49456Y-28437D03*
X49456Y-27437D03*
X49456Y-26437D03*
X49456Y-25437D03*
X49456Y-24437D03*
X49456Y-23437D03*
X49456Y-22437D03*
X43456Y-22437D03*
X43456Y-23437D03*
X43456Y-24437D03*
X43456Y-25437D03*
X43456Y-26437D03*
X43456Y-27437D03*
X43456Y-28437D03*
X43456Y-29437D03*
X43456Y-30437D03*
X43456Y-31437D03*
X43456Y-32437D03*
X43456Y-33437D03*
X43456Y-34437D03*
X43456Y-35437D03*
X43456Y-36437D03*
G54D16*
X59055Y-21440D03*
G54D14*
X59055Y-22440D03*
X59055Y-23440D03*
G54D16*
X59637Y-36929D03*
G54D14*
X58637Y-36929D03*
X57637Y-36929D03*
X56637Y-36929D03*
X55637Y-36929D03*
G54D16*
X42362Y-35090D03*
G54D14*
X42362Y-36090D03*
G54D16*
X42362Y-31625D03*
G54D14*
X42362Y-32625D03*
G54D16*
X42362Y-28043D03*
G54D14*
X42362Y-29043D03*
G54D16*
X42362Y-24500D03*
G54D14*
X42362Y-25500D03*
X54519Y-38818D03*
X50519Y-38818D03*
M02*
