G04 (created by PCBNEW (22-Jun-2014 BZR 4027)-stable) date Sat 10 Oct 2015 09:17:51 PM CEST*
%MOIN*%
G04 Gerber Fmt 3.4, Leading zero omitted, Abs format*
%FSLAX34Y34*%
G01*
G70*
G90*
G04 APERTURE LIST*
%ADD10C,0.00590551*%
%ADD11C,0.011811*%
%ADD12C,0.015*%
%ADD13C,0.0593*%
%ADD14R,0.11X0.07*%
%ADD15R,0.08X0.06*%
%ADD16R,0.035X0.055*%
%ADD17R,0.055X0.035*%
%ADD18R,0.055X0.055*%
%ADD19C,0.055*%
%ADD20C,0.06*%
%ADD21O,0.0593X0.1187*%
%ADD22R,0.06X0.06*%
%ADD23C,0.07*%
%ADD24C,0.066*%
%ADD25R,0.0629X0.0709*%
%ADD26R,0.07X0.07*%
%ADD27R,0.1X0.1*%
%ADD28C,0.1*%
%ADD29R,0.09X0.062*%
%ADD30O,0.09X0.062*%
%ADD31C,0.0370079*%
%ADD32C,0.008*%
%ADD33C,0.00787402*%
%ADD34C,0.017*%
%ADD35C,0.019685*%
%ADD36C,0.023622*%
G04 APERTURE END LIST*
G54D10*
G54D11*
X48492Y-20143D02*
X48464Y-20171D01*
X48380Y-20199D01*
X48323Y-20199D01*
X48239Y-20171D01*
X48183Y-20115D01*
X48155Y-20059D01*
X48127Y-19946D01*
X48127Y-19862D01*
X48155Y-19749D01*
X48183Y-19693D01*
X48239Y-19637D01*
X48323Y-19609D01*
X48380Y-19609D01*
X48464Y-19637D01*
X48492Y-19665D01*
X48858Y-19609D02*
X48970Y-19609D01*
X49026Y-19637D01*
X49083Y-19693D01*
X49111Y-19805D01*
X49111Y-20002D01*
X49083Y-20115D01*
X49026Y-20171D01*
X48970Y-20199D01*
X48858Y-20199D01*
X48802Y-20171D01*
X48745Y-20115D01*
X48717Y-20002D01*
X48717Y-19805D01*
X48745Y-19693D01*
X48802Y-19637D01*
X48858Y-19609D01*
X49364Y-20199D02*
X49364Y-19609D01*
X49561Y-20030D01*
X49758Y-19609D01*
X49758Y-20199D01*
X50039Y-20199D02*
X50039Y-19609D01*
X50264Y-19609D01*
X50320Y-19637D01*
X50348Y-19665D01*
X50376Y-19721D01*
X50376Y-19805D01*
X50348Y-19862D01*
X50320Y-19890D01*
X50264Y-19918D01*
X50039Y-19918D01*
X41709Y-39069D02*
X41653Y-39097D01*
X41541Y-39097D01*
X41484Y-39069D01*
X41456Y-39012D01*
X41456Y-38787D01*
X41484Y-38731D01*
X41541Y-38703D01*
X41653Y-38703D01*
X41709Y-38731D01*
X41737Y-38787D01*
X41737Y-38844D01*
X41456Y-38900D01*
X42075Y-39097D02*
X42019Y-39069D01*
X41991Y-39012D01*
X41991Y-38506D01*
X42525Y-39069D02*
X42469Y-39097D01*
X42356Y-39097D01*
X42300Y-39069D01*
X42272Y-39012D01*
X42272Y-38787D01*
X42300Y-38731D01*
X42356Y-38703D01*
X42469Y-38703D01*
X42525Y-38731D01*
X42553Y-38787D01*
X42553Y-38844D01*
X42272Y-38900D01*
X43059Y-39069D02*
X43003Y-39097D01*
X42890Y-39097D01*
X42834Y-39069D01*
X42806Y-39041D01*
X42778Y-38984D01*
X42778Y-38816D01*
X42806Y-38759D01*
X42834Y-38731D01*
X42890Y-38703D01*
X43003Y-38703D01*
X43059Y-38731D01*
X43228Y-38703D02*
X43453Y-38703D01*
X43312Y-38506D02*
X43312Y-39012D01*
X43340Y-39069D01*
X43397Y-39097D01*
X43453Y-39097D01*
X43650Y-39097D02*
X43650Y-38703D01*
X43650Y-38816D02*
X43678Y-38759D01*
X43706Y-38731D01*
X43762Y-38703D01*
X43818Y-38703D01*
X44100Y-39097D02*
X44043Y-39069D01*
X44015Y-39041D01*
X43987Y-38984D01*
X43987Y-38816D01*
X44015Y-38759D01*
X44043Y-38731D01*
X44100Y-38703D01*
X44184Y-38703D01*
X44240Y-38731D01*
X44268Y-38759D01*
X44296Y-38816D01*
X44296Y-38984D01*
X44268Y-39041D01*
X44240Y-39069D01*
X44184Y-39097D01*
X44100Y-39097D01*
X44550Y-38703D02*
X44550Y-39097D01*
X44550Y-38759D02*
X44578Y-38731D01*
X44634Y-38703D01*
X44718Y-38703D01*
X44775Y-38731D01*
X44803Y-38787D01*
X44803Y-39097D01*
X45084Y-39097D02*
X45084Y-38703D01*
X45084Y-38506D02*
X45056Y-38534D01*
X45084Y-38562D01*
X45112Y-38534D01*
X45084Y-38506D01*
X45084Y-38562D01*
X45618Y-39069D02*
X45562Y-39097D01*
X45449Y-39097D01*
X45393Y-39069D01*
X45365Y-39041D01*
X45337Y-38984D01*
X45337Y-38816D01*
X45365Y-38759D01*
X45393Y-38731D01*
X45449Y-38703D01*
X45562Y-38703D01*
X45618Y-38731D01*
X45843Y-39069D02*
X45899Y-39097D01*
X46012Y-39097D01*
X46068Y-39069D01*
X46096Y-39012D01*
X46096Y-38984D01*
X46068Y-38928D01*
X46012Y-38900D01*
X45928Y-38900D01*
X45871Y-38872D01*
X45843Y-38816D01*
X45843Y-38787D01*
X45871Y-38731D01*
X45928Y-38703D01*
X46012Y-38703D01*
X46068Y-38731D01*
X46349Y-39041D02*
X46377Y-39069D01*
X46349Y-39097D01*
X46321Y-39069D01*
X46349Y-39041D01*
X46349Y-39097D01*
X46884Y-39069D02*
X46827Y-39097D01*
X46715Y-39097D01*
X46659Y-39069D01*
X46631Y-39041D01*
X46602Y-38984D01*
X46602Y-38816D01*
X46631Y-38759D01*
X46659Y-38731D01*
X46715Y-38703D01*
X46827Y-38703D01*
X46884Y-38731D01*
X47390Y-39097D02*
X47390Y-38787D01*
X47362Y-38731D01*
X47305Y-38703D01*
X47193Y-38703D01*
X47137Y-38731D01*
X47390Y-39069D02*
X47334Y-39097D01*
X47193Y-39097D01*
X47137Y-39069D01*
X47109Y-39012D01*
X47109Y-38956D01*
X47137Y-38900D01*
X47193Y-38872D01*
X47334Y-38872D01*
X47390Y-38844D01*
X47587Y-38703D02*
X47812Y-38703D01*
X47671Y-38506D02*
X47671Y-39012D01*
X47699Y-39069D01*
X47755Y-39097D01*
X47812Y-39097D01*
G54D12*
X40297Y-40141D02*
X40032Y-40141D01*
X40032Y-40141D02*
X40017Y-40106D01*
X40017Y-40106D02*
X39972Y-39911D01*
X39972Y-39911D02*
X39877Y-39861D01*
X39877Y-39861D02*
X39717Y-39956D01*
X39717Y-39956D02*
X39667Y-39966D01*
X39667Y-39966D02*
X39507Y-39801D01*
X39507Y-39801D02*
X39517Y-39741D01*
X39517Y-39741D02*
X39627Y-39596D01*
X39627Y-39596D02*
X39607Y-39511D01*
X39607Y-39511D02*
X39437Y-39466D01*
X39437Y-39466D02*
X39422Y-39461D01*
X39422Y-39461D02*
X39392Y-39456D01*
X39392Y-39456D02*
X39382Y-39426D01*
X39382Y-39426D02*
X39382Y-39246D01*
X39382Y-39246D02*
X39397Y-39181D01*
X39397Y-39181D02*
X39602Y-39141D01*
X39602Y-39141D02*
X39627Y-39086D01*
X39627Y-39086D02*
X39522Y-38926D01*
X39522Y-38926D02*
X39507Y-38861D01*
X39507Y-38861D02*
X39657Y-38716D01*
X39657Y-38716D02*
X39712Y-38706D01*
X39712Y-38706D02*
X39892Y-38816D01*
X39892Y-38816D02*
X39957Y-38786D01*
X39957Y-38786D02*
X39997Y-38591D01*
X39997Y-38591D02*
X40012Y-38576D01*
X40012Y-38576D02*
X40237Y-38571D01*
X40237Y-38571D02*
X40312Y-38776D01*
X40312Y-38776D02*
X40407Y-38816D01*
X40407Y-38816D02*
X40612Y-38751D01*
X40612Y-38751D02*
X40732Y-38871D01*
X40732Y-38871D02*
X40632Y-39051D01*
X40632Y-39051D02*
X40407Y-39221D01*
X40772Y-39551D02*
X40722Y-39641D01*
X40722Y-39641D02*
X40847Y-39836D01*
X40847Y-39836D02*
X40657Y-40016D01*
X40657Y-40016D02*
X40447Y-39881D01*
X40447Y-39881D02*
X40317Y-39921D01*
X40317Y-39921D02*
X40282Y-40111D01*
X40407Y-39221D02*
X40322Y-39166D01*
X40322Y-39166D02*
X40252Y-39136D01*
X40252Y-39136D02*
X40137Y-39136D01*
X40137Y-39136D02*
X40042Y-39191D01*
X40042Y-39191D02*
X39987Y-39276D01*
X39987Y-39276D02*
X39967Y-39381D01*
X39967Y-39381D02*
X40017Y-39486D01*
X40017Y-39486D02*
X40092Y-39541D01*
X40092Y-39541D02*
X40192Y-39581D01*
X40192Y-39581D02*
X40297Y-39551D01*
X40297Y-39551D02*
X40367Y-39506D01*
X40367Y-39506D02*
X40422Y-39426D01*
X40422Y-39426D02*
X40477Y-39421D01*
X40477Y-39421D02*
X40737Y-39546D01*
X39217Y-39396D02*
X39217Y-39326D01*
X39217Y-39326D02*
X39207Y-39216D01*
X39207Y-39216D02*
X39192Y-39136D01*
X39192Y-39136D02*
X39152Y-39026D01*
X39152Y-39026D02*
X39092Y-38951D01*
X39092Y-38951D02*
X39017Y-38891D01*
X39017Y-38891D02*
X38922Y-38846D01*
X38922Y-38846D02*
X38832Y-38836D01*
X38832Y-38836D02*
X38792Y-38836D01*
X38792Y-38836D02*
X38682Y-38846D01*
X38682Y-38846D02*
X38587Y-38891D01*
X38587Y-38891D02*
X38497Y-38946D01*
X38497Y-38946D02*
X38427Y-39021D01*
X38427Y-39021D02*
X38372Y-39131D01*
X38372Y-39131D02*
X38342Y-39241D01*
X38342Y-39241D02*
X38337Y-39356D01*
X38337Y-39356D02*
X38337Y-39411D01*
X38337Y-39411D02*
X38357Y-39531D01*
X38357Y-39531D02*
X38397Y-39636D01*
X38397Y-39636D02*
X38467Y-39736D01*
X38467Y-39736D02*
X38547Y-39796D01*
X38547Y-39796D02*
X38627Y-39851D01*
X38627Y-39851D02*
X38722Y-39876D01*
X38722Y-39876D02*
X38867Y-39876D01*
X38867Y-39876D02*
X39037Y-39856D01*
X39037Y-39856D02*
X39147Y-39811D01*
X39147Y-39811D02*
X39122Y-39671D01*
X39122Y-39671D02*
X38997Y-39716D01*
X38997Y-39716D02*
X38872Y-39731D01*
X38872Y-39731D02*
X38707Y-39726D01*
X38707Y-39726D02*
X38607Y-39671D01*
X38607Y-39671D02*
X38542Y-39601D01*
X38542Y-39601D02*
X38487Y-39486D01*
X38487Y-39486D02*
X38462Y-39361D01*
X38462Y-39361D02*
X38472Y-39231D01*
X38472Y-39231D02*
X38517Y-39111D01*
X38517Y-39111D02*
X38582Y-39026D01*
X38582Y-39026D02*
X38692Y-38956D01*
X38692Y-38956D02*
X38792Y-38936D01*
X38792Y-38936D02*
X38912Y-38961D01*
X38912Y-38961D02*
X38982Y-39011D01*
X38982Y-39011D02*
X39042Y-39076D01*
X39042Y-39076D02*
X39082Y-39171D01*
X39082Y-39171D02*
X39082Y-39246D01*
X39082Y-39246D02*
X39092Y-39391D01*
X39092Y-39391D02*
X38537Y-39391D01*
X38537Y-39391D02*
X38357Y-39356D01*
X38357Y-39356D02*
X38517Y-39331D01*
X38517Y-39331D02*
X39217Y-39331D01*
X39217Y-39331D02*
X39217Y-39396D01*
X39217Y-39396D02*
X39092Y-39391D01*
X39217Y-39396D02*
X39092Y-39391D01*
X39217Y-39331D02*
X39217Y-39396D01*
X38517Y-39331D02*
X39217Y-39331D01*
X38357Y-39356D02*
X38517Y-39331D01*
X38537Y-39391D02*
X38357Y-39356D01*
X39092Y-39391D02*
X38537Y-39391D01*
X39082Y-39246D02*
X39092Y-39391D01*
X39082Y-39171D02*
X39082Y-39246D01*
X39042Y-39076D02*
X39082Y-39171D01*
X38982Y-39011D02*
X39042Y-39076D01*
X38912Y-38961D02*
X38982Y-39011D01*
X38792Y-38936D02*
X38912Y-38961D01*
X38692Y-38956D02*
X38792Y-38936D01*
X38582Y-39026D02*
X38692Y-38956D01*
X38517Y-39111D02*
X38582Y-39026D01*
X38472Y-39231D02*
X38517Y-39111D01*
X38462Y-39361D02*
X38472Y-39231D01*
X38487Y-39486D02*
X38462Y-39361D01*
X38542Y-39601D02*
X38487Y-39486D01*
X38607Y-39671D02*
X38542Y-39601D01*
X38707Y-39726D02*
X38607Y-39671D01*
X38872Y-39731D02*
X38707Y-39726D01*
X38997Y-39716D02*
X38872Y-39731D01*
X39122Y-39671D02*
X38997Y-39716D01*
X39147Y-39811D02*
X39122Y-39671D01*
X39037Y-39856D02*
X39147Y-39811D01*
X38867Y-39876D02*
X39037Y-39856D01*
X38722Y-39876D02*
X38867Y-39876D01*
X38627Y-39851D02*
X38722Y-39876D01*
X38547Y-39796D02*
X38627Y-39851D01*
X38467Y-39736D02*
X38547Y-39796D01*
X38397Y-39636D02*
X38467Y-39736D01*
X38357Y-39531D02*
X38397Y-39636D01*
X38337Y-39411D02*
X38357Y-39531D01*
X38337Y-39356D02*
X38337Y-39411D01*
X38342Y-39241D02*
X38337Y-39356D01*
X38372Y-39131D02*
X38342Y-39241D01*
X38427Y-39021D02*
X38372Y-39131D01*
X38497Y-38946D02*
X38427Y-39021D01*
X38587Y-38891D02*
X38497Y-38946D01*
X38682Y-38846D02*
X38587Y-38891D01*
X38792Y-38836D02*
X38682Y-38846D01*
X38832Y-38836D02*
X38792Y-38836D01*
X38922Y-38846D02*
X38832Y-38836D01*
X39017Y-38891D02*
X38922Y-38846D01*
X39092Y-38951D02*
X39017Y-38891D01*
X39152Y-39026D02*
X39092Y-38951D01*
X39192Y-39136D02*
X39152Y-39026D01*
X39207Y-39216D02*
X39192Y-39136D01*
X39217Y-39326D02*
X39207Y-39216D01*
X39217Y-39396D02*
X39217Y-39326D01*
X40477Y-39421D02*
X40737Y-39546D01*
X40422Y-39426D02*
X40477Y-39421D01*
X40367Y-39506D02*
X40422Y-39426D01*
X40297Y-39551D02*
X40367Y-39506D01*
X40192Y-39581D02*
X40297Y-39551D01*
X40092Y-39541D02*
X40192Y-39581D01*
X40017Y-39486D02*
X40092Y-39541D01*
X39967Y-39381D02*
X40017Y-39486D01*
X39987Y-39276D02*
X39967Y-39381D01*
X40042Y-39191D02*
X39987Y-39276D01*
X40137Y-39136D02*
X40042Y-39191D01*
X40252Y-39136D02*
X40137Y-39136D01*
X40322Y-39166D02*
X40252Y-39136D01*
X40407Y-39221D02*
X40322Y-39166D01*
X40317Y-39921D02*
X40282Y-40111D01*
X40447Y-39881D02*
X40317Y-39921D01*
X40657Y-40016D02*
X40447Y-39881D01*
X40847Y-39836D02*
X40657Y-40016D01*
X40722Y-39641D02*
X40847Y-39836D01*
X40772Y-39551D02*
X40722Y-39641D01*
X40632Y-39051D02*
X40407Y-39221D01*
X40732Y-38871D02*
X40632Y-39051D01*
X40612Y-38751D02*
X40732Y-38871D01*
X40407Y-38816D02*
X40612Y-38751D01*
X40312Y-38776D02*
X40407Y-38816D01*
X40237Y-38571D02*
X40312Y-38776D01*
X40012Y-38576D02*
X40237Y-38571D01*
X39997Y-38591D02*
X40012Y-38576D01*
X39957Y-38786D02*
X39997Y-38591D01*
X39892Y-38816D02*
X39957Y-38786D01*
X39712Y-38706D02*
X39892Y-38816D01*
X39657Y-38716D02*
X39712Y-38706D01*
X39507Y-38861D02*
X39657Y-38716D01*
X39522Y-38926D02*
X39507Y-38861D01*
X39627Y-39086D02*
X39522Y-38926D01*
X39602Y-39141D02*
X39627Y-39086D01*
X39397Y-39181D02*
X39602Y-39141D01*
X39382Y-39246D02*
X39397Y-39181D01*
X39382Y-39426D02*
X39382Y-39246D01*
X39392Y-39456D02*
X39382Y-39426D01*
X39422Y-39461D02*
X39392Y-39456D01*
X39437Y-39466D02*
X39422Y-39461D01*
X39607Y-39511D02*
X39437Y-39466D01*
X39627Y-39596D02*
X39607Y-39511D01*
X39517Y-39741D02*
X39627Y-39596D01*
X39507Y-39801D02*
X39517Y-39741D01*
X39667Y-39966D02*
X39507Y-39801D01*
X39717Y-39956D02*
X39667Y-39966D01*
X39877Y-39861D02*
X39717Y-39956D01*
X39972Y-39911D02*
X39877Y-39861D01*
X40017Y-40106D02*
X39972Y-39911D01*
X40032Y-40141D02*
X40017Y-40106D01*
X40297Y-40141D02*
X40032Y-40141D01*
G54D13*
X52059Y-32055D03*
X53059Y-32055D03*
X52059Y-33055D03*
X53059Y-33055D03*
X52059Y-34055D03*
X53059Y-34055D03*
X52059Y-35055D03*
X53059Y-35055D03*
X52059Y-36055D03*
X53059Y-36055D03*
X52059Y-22606D03*
X53059Y-22606D03*
X52059Y-23606D03*
X53059Y-23606D03*
X52059Y-24606D03*
X53059Y-24606D03*
X52059Y-25606D03*
X53059Y-25606D03*
X52059Y-26606D03*
X53059Y-26606D03*
X53059Y-17051D03*
X52059Y-17051D03*
X53059Y-16051D03*
X52059Y-16051D03*
X53059Y-15051D03*
X52059Y-15051D03*
X53059Y-14051D03*
X52059Y-14051D03*
G54D14*
X46456Y-16229D03*
X46456Y-17629D03*
G54D15*
X55118Y-13838D03*
X55118Y-12538D03*
G54D16*
X58249Y-34251D03*
X57499Y-34251D03*
G54D17*
X43503Y-16713D03*
X43503Y-15963D03*
X44881Y-22225D03*
X44881Y-21475D03*
X46456Y-22225D03*
X46456Y-21475D03*
G54D16*
X57499Y-31102D03*
X58249Y-31102D03*
X57499Y-32677D03*
X58249Y-32677D03*
G54D17*
X44881Y-27934D03*
X44881Y-27184D03*
G54D16*
X57499Y-35826D03*
X58249Y-35826D03*
X57499Y-29527D03*
X58249Y-29527D03*
G54D17*
X46456Y-27934D03*
X46456Y-27184D03*
G54D16*
X57499Y-27952D03*
X58249Y-27952D03*
G54D17*
X48031Y-27934D03*
X48031Y-27184D03*
X44881Y-34430D03*
X44881Y-33680D03*
G54D16*
X57499Y-24803D03*
X58249Y-24803D03*
X57499Y-26377D03*
X58249Y-26377D03*
G54D17*
X46456Y-34430D03*
X46456Y-33680D03*
X55118Y-16319D03*
X55118Y-15569D03*
X48031Y-34430D03*
X48031Y-33680D03*
G54D18*
X62251Y-19881D03*
G54D19*
X61251Y-19881D03*
X60251Y-19881D03*
X59251Y-19881D03*
X58251Y-19881D03*
X57251Y-19881D03*
X56251Y-19881D03*
G54D18*
X44891Y-15028D03*
G54D19*
X44891Y-16028D03*
X44891Y-17028D03*
X44891Y-18028D03*
X44891Y-19028D03*
G54D18*
X39173Y-13098D03*
G54D19*
X39173Y-12098D03*
G54D20*
X48031Y-36842D03*
X48031Y-32842D03*
X43503Y-19125D03*
X43503Y-15125D03*
X59086Y-34251D03*
X55086Y-34251D03*
X46456Y-24637D03*
X46456Y-20637D03*
X55086Y-31102D03*
X59086Y-31102D03*
X55086Y-35826D03*
X59086Y-35826D03*
X55086Y-32677D03*
X59086Y-32677D03*
X44881Y-24637D03*
X44881Y-20637D03*
X46456Y-30346D03*
X46456Y-26346D03*
X55086Y-29527D03*
X59086Y-29527D03*
X55086Y-26377D03*
X59086Y-26377D03*
X44881Y-30346D03*
X44881Y-26346D03*
X44881Y-36842D03*
X44881Y-32842D03*
X55086Y-27952D03*
X59086Y-27952D03*
X46456Y-36842D03*
X46456Y-32842D03*
X55086Y-24803D03*
X59086Y-24803D03*
X48031Y-30346D03*
X48031Y-26346D03*
G54D21*
X40566Y-21456D03*
X39566Y-21456D03*
X38566Y-21456D03*
X60645Y-12992D03*
X59645Y-12992D03*
X58645Y-12992D03*
X60645Y-16141D03*
X59645Y-16141D03*
X58645Y-16141D03*
X40566Y-18503D03*
X39566Y-18503D03*
X38566Y-18503D03*
X49515Y-12598D03*
X48515Y-12598D03*
G54D22*
X49515Y-18232D03*
G54D20*
X48515Y-18232D03*
X49515Y-17232D03*
X48515Y-17232D03*
X49515Y-16232D03*
X48515Y-16232D03*
X49515Y-15232D03*
X48515Y-15232D03*
G54D22*
X60236Y-21440D03*
G54D20*
X60236Y-22440D03*
X60236Y-23440D03*
G54D22*
X38976Y-14354D03*
G54D20*
X38976Y-15354D03*
X38976Y-16354D03*
G54D22*
X42322Y-19503D03*
G54D20*
X42322Y-18503D03*
X42322Y-17503D03*
G54D22*
X63098Y-31692D03*
G54D20*
X62098Y-31692D03*
G54D22*
X63098Y-34842D03*
G54D20*
X62098Y-34842D03*
G54D22*
X41535Y-13098D03*
G54D20*
X41535Y-12098D03*
G54D22*
X63098Y-25393D03*
G54D20*
X62098Y-25393D03*
G54D22*
X63098Y-28543D03*
G54D20*
X62098Y-28543D03*
G54D23*
X41310Y-27149D03*
X41310Y-29149D03*
X38560Y-29149D03*
X38560Y-27149D03*
X41310Y-30692D03*
X41310Y-32692D03*
X38560Y-32692D03*
X38560Y-30692D03*
X41310Y-23606D03*
X41310Y-25606D03*
X38560Y-25606D03*
X38560Y-23606D03*
X41310Y-34236D03*
X41310Y-36236D03*
X38560Y-36236D03*
X38560Y-34236D03*
G54D24*
X36614Y-28255D03*
X36614Y-27255D03*
X36614Y-31799D03*
X36614Y-30799D03*
X59933Y-28740D03*
X60933Y-28740D03*
X59933Y-35039D03*
X60933Y-35039D03*
X36614Y-24712D03*
X36614Y-23712D03*
X36614Y-35342D03*
X36614Y-34342D03*
X59933Y-25590D03*
X60933Y-25590D03*
X59933Y-31889D03*
X60933Y-31889D03*
G54D25*
X63157Y-35826D03*
X62039Y-35826D03*
X37173Y-25787D03*
X36055Y-25787D03*
X63157Y-26377D03*
X62039Y-26377D03*
X37173Y-36417D03*
X36055Y-36417D03*
X37173Y-32874D03*
X36055Y-32874D03*
X63157Y-32677D03*
X62039Y-32677D03*
X63157Y-29527D03*
X62039Y-29527D03*
X37173Y-29330D03*
X36055Y-29330D03*
G54D23*
X46456Y-15125D03*
G54D26*
X46456Y-19125D03*
G54D18*
X56299Y-12082D03*
G54D19*
X56299Y-15082D03*
X55118Y-16944D03*
X55118Y-14944D03*
G54D27*
X46275Y-12795D03*
G54D28*
X44275Y-12795D03*
G54D29*
X49456Y-36437D03*
G54D30*
X49456Y-35437D03*
X49456Y-34437D03*
X49456Y-33437D03*
X49456Y-32437D03*
X49456Y-31437D03*
X49456Y-30437D03*
X49456Y-29437D03*
X49456Y-28437D03*
X49456Y-27437D03*
X49456Y-26437D03*
X49456Y-25437D03*
X49456Y-24437D03*
X49456Y-23437D03*
X49456Y-22437D03*
X43456Y-22437D03*
X43456Y-23437D03*
X43456Y-24437D03*
X43456Y-25437D03*
X43456Y-26437D03*
X43456Y-27437D03*
X43456Y-28437D03*
X43456Y-29437D03*
X43456Y-30437D03*
X43456Y-31437D03*
X43456Y-32437D03*
X43456Y-33437D03*
X43456Y-34437D03*
X43456Y-35437D03*
X43456Y-36437D03*
G54D22*
X59055Y-21440D03*
G54D20*
X59055Y-22440D03*
X59055Y-23440D03*
G54D22*
X59637Y-36929D03*
G54D20*
X58637Y-36929D03*
X57637Y-36929D03*
X56637Y-36929D03*
X55637Y-36929D03*
G54D22*
X42362Y-35090D03*
G54D20*
X42362Y-36090D03*
G54D22*
X42362Y-31625D03*
G54D20*
X42362Y-32625D03*
G54D22*
X42362Y-28043D03*
G54D20*
X42362Y-29043D03*
G54D22*
X42362Y-24500D03*
G54D20*
X42362Y-25500D03*
G54D16*
X53760Y-38818D03*
X53010Y-38818D03*
G54D20*
X54519Y-38818D03*
X50519Y-38818D03*
G54D31*
X41646Y-21296D03*
X54055Y-35039D03*
X44802Y-31469D03*
X47283Y-32283D03*
X46228Y-31836D03*
X44198Y-30947D03*
X53149Y-29173D03*
X42165Y-37165D03*
G54D32*
X43503Y-19762D02*
X43503Y-19125D01*
X42833Y-20433D02*
X43503Y-19762D01*
X42509Y-20433D02*
X42833Y-20433D01*
X41646Y-21296D02*
X42509Y-20433D01*
G54D33*
X41535Y-13098D02*
X41535Y-13700D01*
X42086Y-14251D02*
X41535Y-13700D01*
X42086Y-15787D02*
X42086Y-14251D01*
X39173Y-13098D02*
X39566Y-13098D01*
X41535Y-13098D02*
X39566Y-13098D01*
X43503Y-16713D02*
X43012Y-16713D01*
X43012Y-16713D02*
X42086Y-15787D01*
X43503Y-19125D02*
X43503Y-16713D01*
X54039Y-35055D02*
X53059Y-35055D01*
X54055Y-35039D02*
X54039Y-35055D01*
X39566Y-18503D02*
X39566Y-17677D01*
X41574Y-18307D02*
X41771Y-18503D01*
X41574Y-17677D02*
X41574Y-18307D01*
X41299Y-17401D02*
X41574Y-17677D01*
X40078Y-17401D02*
X41299Y-17401D01*
X41771Y-18503D02*
X42322Y-18503D01*
X39566Y-17677D02*
X39842Y-17401D01*
X39842Y-17401D02*
X40078Y-17401D01*
G54D32*
X45811Y-31321D02*
X48310Y-31321D01*
X49194Y-30437D02*
X49456Y-30437D01*
X48310Y-31321D02*
X49194Y-30437D01*
X44802Y-31469D02*
X45664Y-31469D01*
X45664Y-31469D02*
X45811Y-31321D01*
X45811Y-31321D02*
X45817Y-31316D01*
X47156Y-31329D02*
X46741Y-31329D01*
X46741Y-31329D02*
X46728Y-31316D01*
X46728Y-31316D02*
X45817Y-31316D01*
X49456Y-30437D02*
X49191Y-30437D01*
X49191Y-30437D02*
X48299Y-31329D01*
X48299Y-31329D02*
X47156Y-31329D01*
X47156Y-31329D02*
X47106Y-31329D01*
G54D33*
X53059Y-34055D02*
X53228Y-34055D01*
X53228Y-34055D02*
X53661Y-33622D01*
X53661Y-33622D02*
X53661Y-31456D01*
X53661Y-31456D02*
X52641Y-30437D01*
X52641Y-30437D02*
X49456Y-30437D01*
X39566Y-23606D02*
X39858Y-23606D01*
X39858Y-23606D02*
X40599Y-22865D01*
X53059Y-25606D02*
X53362Y-25606D01*
X53110Y-27401D02*
X52060Y-27401D01*
X53661Y-26850D02*
X53110Y-27401D01*
X53661Y-25905D02*
X53661Y-26850D01*
X53362Y-25606D02*
X53661Y-25905D01*
X40599Y-22865D02*
X41701Y-22865D01*
X41701Y-22865D02*
X43091Y-21475D01*
X36614Y-23712D02*
X37625Y-23712D01*
X37732Y-23606D02*
X38560Y-23606D01*
X37625Y-23712D02*
X37732Y-23606D01*
X36055Y-25787D02*
X36055Y-25228D01*
X36169Y-23712D02*
X36614Y-23712D01*
X35826Y-24055D02*
X36169Y-23712D01*
X35826Y-25000D02*
X35826Y-24055D01*
X36055Y-25228D02*
X35826Y-25000D01*
X44881Y-20637D02*
X44881Y-21475D01*
X43091Y-21475D02*
X44881Y-21475D01*
X38560Y-23606D02*
X39566Y-23606D01*
X50024Y-29437D02*
X52060Y-27401D01*
X49456Y-29437D02*
X50024Y-29437D01*
X42834Y-26968D02*
X42007Y-26968D01*
X42007Y-26968D02*
X41574Y-26535D01*
X44822Y-26811D02*
X44822Y-26792D01*
X44822Y-26792D02*
X44881Y-26732D01*
X44724Y-26811D02*
X44822Y-26811D01*
X44822Y-26811D02*
X44881Y-26870D01*
X42834Y-26968D02*
X42795Y-26929D01*
X44409Y-26811D02*
X44724Y-26811D01*
X44724Y-26811D02*
X44881Y-26811D01*
X44291Y-26929D02*
X44409Y-26811D01*
X43779Y-26929D02*
X44291Y-26929D01*
X42795Y-26929D02*
X43779Y-26929D01*
X38560Y-27149D02*
X38560Y-26714D01*
X38560Y-26714D02*
X38740Y-26535D01*
X38740Y-26535D02*
X41574Y-26535D01*
X52059Y-26606D02*
X52059Y-26405D01*
X52059Y-26405D02*
X52559Y-25905D01*
X49456Y-28437D02*
X49791Y-28437D01*
X49791Y-28437D02*
X50866Y-27362D01*
X50866Y-27362D02*
X50866Y-25708D01*
X50866Y-25708D02*
X51496Y-25078D01*
X51496Y-25078D02*
X52204Y-25078D01*
X52204Y-25078D02*
X52559Y-25433D01*
X52559Y-25433D02*
X52559Y-25905D01*
X36055Y-29330D02*
X36055Y-29441D01*
X39566Y-28155D02*
X38560Y-27149D01*
X39566Y-29527D02*
X39566Y-28155D01*
X39133Y-29960D02*
X39566Y-29527D01*
X36574Y-29960D02*
X39133Y-29960D01*
X36055Y-29441D02*
X36574Y-29960D01*
X36614Y-27255D02*
X37173Y-27255D01*
X38454Y-27255D02*
X38560Y-27149D01*
X37173Y-27255D02*
X38454Y-27255D01*
X44881Y-26346D02*
X44881Y-26732D01*
X44881Y-26732D02*
X44881Y-26811D01*
X44881Y-26811D02*
X44881Y-26870D01*
X44881Y-26870D02*
X44881Y-27184D01*
X50590Y-25462D02*
X50590Y-25039D01*
X50590Y-25039D02*
X51023Y-24606D01*
X51968Y-24127D02*
X51502Y-24127D01*
X51502Y-24127D02*
X51023Y-24606D01*
X56921Y-21212D02*
X57881Y-21212D01*
X58251Y-20842D02*
X58251Y-19881D01*
X57881Y-21212D02*
X58251Y-20842D01*
X49456Y-27437D02*
X50043Y-27437D01*
X50590Y-26889D02*
X50590Y-25462D01*
X50043Y-27437D02*
X50590Y-26889D01*
X56921Y-21212D02*
X54005Y-24127D01*
X54005Y-24127D02*
X51968Y-24127D01*
X50275Y-25372D02*
X50275Y-24488D01*
X50275Y-24488D02*
X50570Y-24193D01*
X56322Y-20811D02*
X56984Y-20811D01*
X57251Y-20543D02*
X57251Y-19881D01*
X56984Y-20811D02*
X57251Y-20543D01*
X49456Y-26437D02*
X49901Y-26437D01*
X50275Y-26062D02*
X50275Y-25372D01*
X49901Y-26437D02*
X50275Y-26062D01*
X53976Y-23110D02*
X54015Y-23110D01*
X54212Y-22913D02*
X54212Y-22921D01*
X54015Y-23110D02*
X54212Y-22913D01*
X51653Y-23110D02*
X53976Y-23110D01*
X50570Y-24193D02*
X51653Y-23110D01*
X54212Y-22921D02*
X56322Y-20811D01*
X44251Y-24960D02*
X44527Y-25236D01*
X46968Y-25236D02*
X47283Y-24921D01*
X44527Y-25236D02*
X46968Y-25236D01*
X44251Y-24960D02*
X44251Y-24921D01*
X43870Y-23437D02*
X44251Y-23818D01*
X44251Y-23818D02*
X44251Y-24921D01*
X43456Y-23437D02*
X43870Y-23437D01*
X45590Y-17125D02*
X45590Y-14803D01*
X47862Y-17232D02*
X48515Y-17232D01*
X47716Y-17086D02*
X47862Y-17232D01*
X47716Y-14960D02*
X47716Y-17086D01*
X47125Y-14370D02*
X47716Y-14960D01*
X46023Y-14370D02*
X47125Y-14370D01*
X45590Y-14803D02*
X46023Y-14370D01*
X47007Y-19921D02*
X47283Y-20196D01*
X46023Y-19921D02*
X47007Y-19921D01*
X45590Y-19488D02*
X46023Y-19921D01*
X45590Y-17125D02*
X45590Y-19488D01*
X47283Y-24921D02*
X47283Y-20196D01*
G54D32*
X54519Y-38818D02*
X53760Y-38818D01*
X54519Y-38818D02*
X54519Y-37747D01*
X55337Y-36929D02*
X55637Y-36929D01*
X54519Y-37747D02*
X55337Y-36929D01*
G54D33*
X42283Y-33622D02*
X42362Y-33622D01*
X38560Y-33998D02*
X38937Y-33622D01*
X38937Y-33622D02*
X42283Y-33622D01*
X38560Y-34236D02*
X38560Y-33998D01*
X42362Y-33622D02*
X42677Y-33937D01*
X42677Y-33937D02*
X44094Y-33937D01*
X44094Y-33937D02*
X44212Y-34055D01*
X44212Y-34055D02*
X47244Y-34055D01*
X47244Y-34055D02*
X47619Y-33680D01*
X47619Y-33680D02*
X48031Y-33680D01*
X36055Y-36417D02*
X36055Y-35661D01*
X36090Y-34342D02*
X36614Y-34342D01*
X35905Y-34527D02*
X36090Y-34342D01*
X35905Y-35511D02*
X35905Y-34527D01*
X36055Y-35661D02*
X35905Y-35511D01*
X36614Y-34342D02*
X37173Y-34342D01*
X37173Y-34342D02*
X38454Y-34342D01*
X38454Y-34342D02*
X38560Y-34236D01*
X48031Y-32842D02*
X48031Y-33680D01*
X41614Y-27755D02*
X41181Y-28188D01*
X40826Y-28188D02*
X40787Y-28228D01*
X41181Y-28188D02*
X40826Y-28188D01*
X40393Y-29173D02*
X40393Y-28622D01*
X39897Y-30692D02*
X40393Y-30196D01*
X40393Y-30196D02*
X40393Y-29173D01*
X38560Y-30692D02*
X39897Y-30692D01*
X40393Y-28622D02*
X40787Y-28228D01*
X41933Y-27437D02*
X43456Y-27437D01*
X41614Y-27755D02*
X41933Y-27437D01*
X43456Y-27437D02*
X43933Y-27437D01*
X43933Y-27437D02*
X44055Y-27559D01*
X44055Y-27559D02*
X47322Y-27559D01*
X47322Y-27559D02*
X47697Y-27184D01*
X47697Y-27184D02*
X48031Y-27184D01*
X36055Y-32874D02*
X36055Y-32157D01*
X36248Y-30799D02*
X36614Y-30799D01*
X35866Y-31181D02*
X36248Y-30799D01*
X35866Y-31968D02*
X35866Y-31181D01*
X36055Y-32157D02*
X35866Y-31968D01*
X48031Y-26346D02*
X48031Y-27184D01*
X36614Y-30799D02*
X37173Y-30799D01*
X38454Y-30799D02*
X38560Y-30692D01*
X37173Y-30799D02*
X38454Y-30799D01*
X47283Y-32283D02*
X48385Y-32283D01*
X50472Y-33937D02*
X49055Y-33937D01*
X50590Y-34055D02*
X50472Y-33937D01*
X52059Y-34055D02*
X50590Y-34055D01*
X48897Y-33937D02*
X49055Y-33937D01*
X48385Y-32283D02*
X48582Y-32480D01*
X48582Y-32480D02*
X48582Y-33622D01*
X48582Y-33622D02*
X48897Y-33937D01*
G54D32*
X46758Y-31733D02*
X47748Y-31733D01*
X47902Y-31887D02*
X48737Y-31887D01*
X47748Y-31733D02*
X47902Y-31887D01*
X46655Y-31836D02*
X46228Y-31836D01*
X46758Y-31733D02*
X46655Y-31836D01*
G54D33*
X53059Y-33019D02*
X52598Y-32559D01*
X53059Y-33055D02*
X53059Y-33019D01*
X48779Y-31929D02*
X48737Y-31887D01*
X50157Y-31929D02*
X48779Y-31929D01*
X50196Y-31968D02*
X50157Y-31929D01*
X50787Y-32559D02*
X50196Y-31968D01*
X52598Y-32559D02*
X50787Y-32559D01*
G54D32*
X48468Y-32090D02*
X47673Y-32090D01*
X47673Y-32090D02*
X47512Y-31929D01*
G54D33*
X42854Y-31161D02*
X42854Y-31673D01*
X42854Y-31161D02*
X43456Y-30559D01*
X43456Y-30559D02*
X43456Y-30437D01*
X47007Y-31929D02*
X47512Y-31929D01*
X43267Y-31929D02*
X44015Y-31929D01*
X44133Y-31929D02*
X44448Y-32244D01*
X44448Y-32244D02*
X46692Y-32244D01*
X46692Y-32244D02*
X47007Y-31929D01*
X44015Y-31929D02*
X44133Y-31929D01*
X43110Y-31929D02*
X42874Y-31692D01*
X43267Y-31929D02*
X43110Y-31929D01*
X42854Y-31673D02*
X42874Y-31692D01*
X48468Y-32090D02*
X48779Y-32401D01*
X52059Y-33055D02*
X50456Y-33055D01*
X50456Y-33055D02*
X50354Y-32952D01*
X50354Y-32952D02*
X49055Y-32952D01*
X49055Y-32952D02*
X48779Y-32677D01*
X48779Y-32677D02*
X48779Y-32401D01*
G54D32*
X43456Y-31437D02*
X44044Y-31437D01*
X45948Y-31493D02*
X46469Y-31493D01*
X45465Y-31976D02*
X45948Y-31493D01*
X44583Y-31976D02*
X45465Y-31976D01*
X44044Y-31437D02*
X44583Y-31976D01*
X48665Y-31295D02*
X48660Y-31295D01*
G54D33*
X53059Y-32055D02*
X53059Y-31877D01*
X49015Y-30944D02*
X48955Y-31004D01*
X52125Y-30944D02*
X49015Y-30944D01*
X53059Y-31877D02*
X52125Y-30944D01*
X48665Y-31295D02*
X48955Y-31004D01*
G54D32*
X48660Y-31295D02*
X48406Y-31550D01*
X48406Y-31550D02*
X46526Y-31550D01*
X46526Y-31550D02*
X46469Y-31493D01*
X47808Y-30905D02*
X45246Y-30905D01*
X45246Y-30905D02*
X45175Y-30834D01*
X44291Y-30433D02*
X44293Y-30433D01*
G54D33*
X41968Y-30944D02*
X41732Y-31181D01*
X41732Y-31181D02*
X41732Y-32007D01*
X41732Y-32007D02*
X41850Y-32125D01*
X41850Y-32125D02*
X42716Y-32125D01*
X42716Y-32125D02*
X43027Y-32437D01*
X43027Y-32437D02*
X43456Y-32437D01*
X42952Y-29960D02*
X42795Y-30118D01*
X44094Y-29960D02*
X42952Y-29960D01*
X44291Y-30157D02*
X44094Y-29960D01*
X44291Y-30433D02*
X44291Y-30157D01*
X42283Y-30944D02*
X42795Y-30433D01*
X42795Y-30433D02*
X42795Y-30118D01*
X41968Y-30944D02*
X42283Y-30944D01*
G54D32*
X44293Y-30433D02*
X44694Y-30834D01*
X44694Y-30834D02*
X45175Y-30834D01*
X47910Y-30905D02*
X48168Y-30905D01*
X48168Y-30905D02*
X48559Y-30514D01*
G54D33*
X47910Y-30905D02*
X47808Y-30905D01*
X52059Y-25606D02*
X51181Y-26484D01*
X51181Y-27637D02*
X51181Y-26484D01*
X49881Y-28937D02*
X51181Y-27637D01*
X48559Y-30409D02*
X48559Y-29196D01*
X48818Y-28937D02*
X49210Y-28937D01*
X48559Y-29196D02*
X48818Y-28937D01*
X49210Y-28937D02*
X49566Y-28937D01*
X49566Y-28937D02*
X49881Y-28937D01*
X48559Y-30514D02*
X48559Y-30409D01*
G54D32*
X47677Y-31102D02*
X45046Y-31102D01*
X45046Y-31102D02*
X44967Y-31023D01*
X44198Y-30947D02*
X44479Y-30947D01*
X44479Y-30947D02*
X44555Y-31023D01*
X44555Y-31023D02*
X44967Y-31023D01*
X47829Y-31102D02*
X48228Y-31102D01*
G54D33*
X47829Y-31102D02*
X47677Y-31102D01*
X54133Y-27007D02*
X53346Y-27795D01*
X54133Y-26338D02*
X54133Y-27007D01*
X54479Y-25993D02*
X54133Y-26338D01*
X48976Y-29960D02*
X49370Y-29960D01*
X48818Y-30118D02*
X48976Y-29960D01*
X48818Y-30511D02*
X48818Y-30118D01*
X50521Y-29959D02*
X49370Y-29959D01*
X52686Y-27795D02*
X50521Y-29959D01*
X57613Y-25496D02*
X57874Y-25236D01*
X57874Y-25236D02*
X57874Y-23543D01*
X57283Y-25496D02*
X57613Y-25496D01*
X57283Y-25496D02*
X54985Y-25496D01*
X49370Y-29960D02*
X49370Y-29959D01*
X54488Y-25993D02*
X54985Y-25496D01*
X54488Y-25993D02*
X54479Y-25993D01*
X53346Y-27795D02*
X52686Y-27795D01*
G54D32*
X48228Y-31102D02*
X48818Y-30511D01*
G54D33*
X53059Y-24606D02*
X54251Y-24606D01*
X57755Y-23425D02*
X57874Y-23543D01*
X55433Y-23425D02*
X57755Y-23425D01*
X54251Y-24606D02*
X55433Y-23425D01*
X57755Y-23440D02*
X57771Y-23440D01*
X57771Y-23440D02*
X57874Y-23543D01*
X57976Y-23440D02*
X57937Y-23440D01*
X57874Y-23543D02*
X57976Y-23440D01*
X57755Y-23440D02*
X57937Y-23440D01*
X57937Y-23440D02*
X59055Y-23440D01*
X59055Y-23440D02*
X60236Y-23440D01*
X52677Y-36889D02*
X53110Y-36889D01*
X54566Y-33196D02*
X55086Y-32677D01*
X54566Y-35433D02*
X54566Y-33196D01*
X53110Y-36889D02*
X54566Y-35433D01*
X55086Y-32677D02*
X55086Y-31102D01*
X50157Y-35944D02*
X50236Y-35944D01*
X51181Y-36889D02*
X52677Y-36889D01*
X50236Y-35944D02*
X51181Y-36889D01*
X44330Y-36023D02*
X44409Y-35944D01*
X44409Y-35944D02*
X50157Y-35944D01*
X55086Y-31102D02*
X55078Y-31102D01*
X55078Y-31102D02*
X53149Y-29173D01*
X43456Y-36437D02*
X43917Y-36437D01*
X43917Y-36437D02*
X44330Y-36023D01*
X55086Y-32677D02*
X57205Y-32677D01*
X57352Y-32677D02*
X57205Y-32677D01*
X57499Y-32677D02*
X57352Y-32677D01*
X57499Y-32530D02*
X57499Y-31102D01*
X57352Y-32677D02*
X57499Y-32530D01*
X54251Y-36889D02*
X54803Y-36889D01*
X54803Y-36889D02*
X55354Y-36338D01*
X43405Y-37618D02*
X47539Y-37618D01*
X53385Y-37755D02*
X54251Y-36889D01*
X53385Y-39330D02*
X53385Y-37755D01*
X53267Y-39448D02*
X53385Y-39330D01*
X49370Y-39448D02*
X53267Y-39448D01*
X47539Y-37618D02*
X49370Y-39448D01*
X63228Y-36771D02*
X63740Y-36259D01*
X63740Y-36259D02*
X63740Y-34212D01*
X57499Y-29939D02*
X57874Y-30314D01*
X57874Y-30314D02*
X57874Y-33110D01*
X57874Y-33110D02*
X58129Y-33366D01*
X63464Y-33740D02*
X63740Y-34015D01*
X63740Y-34015D02*
X63740Y-34212D01*
X57499Y-29527D02*
X57499Y-29939D01*
X59940Y-33366D02*
X60314Y-33740D01*
X60314Y-33740D02*
X63464Y-33740D01*
X58129Y-33366D02*
X59940Y-33366D01*
X55354Y-36338D02*
X60472Y-36338D01*
X60472Y-36338D02*
X60905Y-36771D01*
X60905Y-36771D02*
X63228Y-36771D01*
X42893Y-36200D02*
X42893Y-36000D01*
X42893Y-36000D02*
X43031Y-35862D01*
X42775Y-36988D02*
X42775Y-36318D01*
X43031Y-35862D02*
X43456Y-35437D01*
X42775Y-36318D02*
X42893Y-36200D01*
X42775Y-36988D02*
X43405Y-37618D01*
X55086Y-29527D02*
X55086Y-27952D01*
X57499Y-27952D02*
X55086Y-27952D01*
X57499Y-29527D02*
X57499Y-27952D01*
X52834Y-37362D02*
X53149Y-37362D01*
X54685Y-35826D02*
X55086Y-35826D01*
X53149Y-37362D02*
X54685Y-35826D01*
X57499Y-35826D02*
X57499Y-35296D01*
X58249Y-34939D02*
X58249Y-34251D01*
X58110Y-35078D02*
X58249Y-34939D01*
X57716Y-35078D02*
X58110Y-35078D01*
X57499Y-35296D02*
X57716Y-35078D01*
X49456Y-37015D02*
X49456Y-36437D01*
X49803Y-37362D02*
X49456Y-37015D01*
X52834Y-37362D02*
X49803Y-37362D01*
X59086Y-34251D02*
X58249Y-34251D01*
X57499Y-35826D02*
X57205Y-35826D01*
X55086Y-35826D02*
X57205Y-35826D01*
X43456Y-34437D02*
X43688Y-34437D01*
X50905Y-34960D02*
X51299Y-34566D01*
X48818Y-34960D02*
X50905Y-34960D01*
X48425Y-35354D02*
X48818Y-34960D01*
X44606Y-35354D02*
X48425Y-35354D01*
X43688Y-34437D02*
X44606Y-35354D01*
X52059Y-24606D02*
X52204Y-24606D01*
X54566Y-24803D02*
X55086Y-24803D01*
X54251Y-25118D02*
X54566Y-24803D01*
X52716Y-25118D02*
X54251Y-25118D01*
X52204Y-24606D02*
X52716Y-25118D01*
X55086Y-26377D02*
X55086Y-26685D01*
X53031Y-28149D02*
X52637Y-28543D01*
X53622Y-28149D02*
X53031Y-28149D01*
X55086Y-26685D02*
X53622Y-28149D01*
X51299Y-34566D02*
X53503Y-34566D01*
X53503Y-34566D02*
X53976Y-34094D01*
X53976Y-34094D02*
X53976Y-30944D01*
X53976Y-30944D02*
X52637Y-29606D01*
X52637Y-29606D02*
X52637Y-28543D01*
X57499Y-26377D02*
X57205Y-26377D01*
X55086Y-26377D02*
X57205Y-26377D01*
X57499Y-24803D02*
X57205Y-24803D01*
X55086Y-24803D02*
X57205Y-24803D01*
G54D34*
X38976Y-15354D02*
X38520Y-15354D01*
X38457Y-12098D02*
X39173Y-12098D01*
X38104Y-12452D02*
X38457Y-12098D01*
X38104Y-14938D02*
X38104Y-12452D01*
X38520Y-15354D02*
X38104Y-14938D01*
X39173Y-12098D02*
X41535Y-12098D01*
X46275Y-12795D02*
X46275Y-12315D01*
X41798Y-11835D02*
X41535Y-12098D01*
X45795Y-11835D02*
X41798Y-11835D01*
X46275Y-12315D02*
X45795Y-11835D01*
G54D33*
X53010Y-38818D02*
X50519Y-38818D01*
X48031Y-36842D02*
X48062Y-36842D01*
X50039Y-38818D02*
X50519Y-38818D01*
X48062Y-36842D02*
X50039Y-38818D01*
X46456Y-27934D02*
X46792Y-27934D01*
X47735Y-27934D02*
X48031Y-27934D01*
X47598Y-28070D02*
X47735Y-27934D01*
X46929Y-28070D02*
X47598Y-28070D01*
X46792Y-27934D02*
X46929Y-28070D01*
X44881Y-27934D02*
X45296Y-27934D01*
X45296Y-27934D02*
X45442Y-28080D01*
X49456Y-25437D02*
X49090Y-25437D01*
X49090Y-25437D02*
X48700Y-25826D01*
X48700Y-25826D02*
X48700Y-27716D01*
X48700Y-27716D02*
X48483Y-27934D01*
X48483Y-27934D02*
X48031Y-27934D01*
X40531Y-19311D02*
X40688Y-19311D01*
X40629Y-19291D02*
X40629Y-19251D01*
X40669Y-19291D02*
X40629Y-19291D01*
X40688Y-19311D02*
X40669Y-19291D01*
X42322Y-19503D02*
X40881Y-19503D01*
X40881Y-19503D02*
X40629Y-19251D01*
X40629Y-19251D02*
X40566Y-19188D01*
X40566Y-19188D02*
X40566Y-18503D01*
X40566Y-18503D02*
X40566Y-19275D01*
X40566Y-19275D02*
X40531Y-19311D01*
X40531Y-19311D02*
X39566Y-20275D01*
X39566Y-20275D02*
X39566Y-21456D01*
X48031Y-30346D02*
X46456Y-30346D01*
X48031Y-34430D02*
X46456Y-34430D01*
X44881Y-22225D02*
X45275Y-22225D01*
X46456Y-34430D02*
X46063Y-34430D01*
X44881Y-34430D02*
X45275Y-34430D01*
X46456Y-15125D02*
X46456Y-15433D01*
G54D35*
X46456Y-15433D02*
X46456Y-16229D01*
G54D33*
X46456Y-30346D02*
X44881Y-30346D01*
X44881Y-30346D02*
X44881Y-28227D01*
X46063Y-34430D02*
X45275Y-34430D01*
X44881Y-27934D02*
X44881Y-28080D01*
X44881Y-28080D02*
X44881Y-28227D01*
X45916Y-28080D02*
X46063Y-27934D01*
X46456Y-27934D02*
X46063Y-27934D01*
X45442Y-28080D02*
X45916Y-28080D01*
X48881Y-34430D02*
X48031Y-34430D01*
X48888Y-34437D02*
X48881Y-34430D01*
X49456Y-34437D02*
X48888Y-34437D01*
X48031Y-36842D02*
X46456Y-36842D01*
X46456Y-36842D02*
X44881Y-36842D01*
X44881Y-24637D02*
X45669Y-24637D01*
X45669Y-24637D02*
X46456Y-24637D01*
X45669Y-24637D02*
X45669Y-22372D01*
X45421Y-22372D02*
X45669Y-22372D01*
X45275Y-22225D02*
X45421Y-22372D01*
X45916Y-22372D02*
X46063Y-22225D01*
X45669Y-22372D02*
X45916Y-22372D01*
X46456Y-22225D02*
X46063Y-22225D01*
G54D35*
X46456Y-19125D02*
X54023Y-19125D01*
X55118Y-18031D02*
X55118Y-16944D01*
X54023Y-19125D02*
X55118Y-18031D01*
X55156Y-12082D02*
X55118Y-12120D01*
X55118Y-12538D02*
X55118Y-12120D01*
X56299Y-12082D02*
X55156Y-12082D01*
X46456Y-19125D02*
X46456Y-17629D01*
X55118Y-16944D02*
X55118Y-16319D01*
G54D36*
X60645Y-14910D02*
X60645Y-14705D01*
X60645Y-14705D02*
X60470Y-14530D01*
X56299Y-15082D02*
X56537Y-15082D01*
X56537Y-15082D02*
X57090Y-14530D01*
X57090Y-14530D02*
X60470Y-14530D01*
X60470Y-14530D02*
X60645Y-14354D01*
X60645Y-16141D02*
X60645Y-14910D01*
X60645Y-14910D02*
X60645Y-14354D01*
X60645Y-14354D02*
X60645Y-12992D01*
X59055Y-21440D02*
X60236Y-21440D01*
X60236Y-21440D02*
X61236Y-21440D01*
X61236Y-21440D02*
X62251Y-20425D01*
X62251Y-20425D02*
X62251Y-19881D01*
X60645Y-16141D02*
X60645Y-16787D01*
X60645Y-16787D02*
X62251Y-18393D01*
X62251Y-18393D02*
X62251Y-19881D01*
G54D32*
X44891Y-15028D02*
X43601Y-15028D01*
X43601Y-15028D02*
X43503Y-15125D01*
G54D35*
X45708Y-13937D02*
X44881Y-13937D01*
X44275Y-13330D02*
X44881Y-13937D01*
X44881Y-13937D02*
X44881Y-15035D01*
X47913Y-13937D02*
X48385Y-13464D01*
X45708Y-13937D02*
X47913Y-13937D01*
X48385Y-13464D02*
X48661Y-13464D01*
X48582Y-13464D02*
X48582Y-13385D01*
X48661Y-13464D02*
X48582Y-13464D01*
X50393Y-13586D02*
X50783Y-13586D01*
X49763Y-13586D02*
X50393Y-13586D01*
X48582Y-13385D02*
X48779Y-13582D01*
X48779Y-13582D02*
X49763Y-13582D01*
G54D33*
X49763Y-13582D02*
X49763Y-13586D01*
G54D35*
X48515Y-13318D02*
X48582Y-13385D01*
X48385Y-13464D02*
X48515Y-13334D01*
G54D33*
X43503Y-15125D02*
X43503Y-15963D01*
G54D35*
X42362Y-25500D02*
X42767Y-25500D01*
X42830Y-25437D02*
X43456Y-25437D01*
X42767Y-25500D02*
X42830Y-25437D01*
X41310Y-25606D02*
X41795Y-25606D01*
X41901Y-25500D02*
X42362Y-25500D01*
X41795Y-25606D02*
X41901Y-25500D01*
X55118Y-14944D02*
X55118Y-15569D01*
X44275Y-12795D02*
X44275Y-13330D01*
X54347Y-13586D02*
X54599Y-13838D01*
X55118Y-13838D02*
X54599Y-13838D01*
X50783Y-13586D02*
X51771Y-12598D01*
X51771Y-12598D02*
X53359Y-12598D01*
X53359Y-12598D02*
X54347Y-13586D01*
X61236Y-21440D02*
X62251Y-20425D01*
X62251Y-20425D02*
X62251Y-19881D01*
G54D33*
X49456Y-23437D02*
X50303Y-23437D01*
X51133Y-22606D02*
X52059Y-22606D01*
X50303Y-23437D02*
X51133Y-22606D01*
G54D35*
X62251Y-19881D02*
X62251Y-18393D01*
X62251Y-18393D02*
X61039Y-17181D01*
G54D33*
X53059Y-17051D02*
X53578Y-17051D01*
X54700Y-14944D02*
X55118Y-14944D01*
X54212Y-15433D02*
X54700Y-14944D01*
X54212Y-16417D02*
X54212Y-15433D01*
X53578Y-17051D02*
X54212Y-16417D01*
G54D35*
X48515Y-12598D02*
X48515Y-13318D01*
G54D33*
X48515Y-13334D02*
X48515Y-12598D01*
G54D35*
X38976Y-16354D02*
X41433Y-16354D01*
G54D33*
X42322Y-17244D02*
X42322Y-17503D01*
G54D35*
X41433Y-16354D02*
X42322Y-17244D01*
X55118Y-14944D02*
X55118Y-13838D01*
X38566Y-18503D02*
X38566Y-17792D01*
X38566Y-17792D02*
X38976Y-17382D01*
X38976Y-17382D02*
X38976Y-16354D01*
G54D33*
X55118Y-15569D02*
X55118Y-15276D01*
X55255Y-15082D02*
X55255Y-15138D01*
X55255Y-15138D02*
X55118Y-15276D01*
G54D35*
X56299Y-15082D02*
X55255Y-15082D01*
G54D33*
X55255Y-15082D02*
X55118Y-14944D01*
X62039Y-32677D02*
X62039Y-32251D01*
X62039Y-32251D02*
X62098Y-32192D01*
X62098Y-32192D02*
X62098Y-31692D01*
X62098Y-31889D02*
X60933Y-31889D01*
X62098Y-31889D02*
X62098Y-31692D01*
X62039Y-35826D02*
X62039Y-35244D01*
X62098Y-35185D02*
X62098Y-34842D01*
X62039Y-35244D02*
X62098Y-35185D01*
X62098Y-35039D02*
X60933Y-35039D01*
X62098Y-35039D02*
X62098Y-34842D01*
X62039Y-26377D02*
X62039Y-25913D01*
X62039Y-25913D02*
X62098Y-25854D01*
X62098Y-25854D02*
X62098Y-25393D01*
X62098Y-25590D02*
X60933Y-25590D01*
X62098Y-25590D02*
X62098Y-25393D01*
X62039Y-29527D02*
X62039Y-29102D01*
X62098Y-29043D02*
X62098Y-28543D01*
X62039Y-29102D02*
X62098Y-29043D01*
X62098Y-28665D02*
X62098Y-28543D01*
X61007Y-28665D02*
X60933Y-28740D01*
X62098Y-28665D02*
X61007Y-28665D01*
X58249Y-29527D02*
X58542Y-29527D01*
X59086Y-29527D02*
X58542Y-29527D01*
X36614Y-22598D02*
X40078Y-22598D01*
X40078Y-22598D02*
X40275Y-22401D01*
X46456Y-20637D02*
X46031Y-20637D01*
X45472Y-20078D02*
X43779Y-20078D01*
X43779Y-20078D02*
X42716Y-21141D01*
X42480Y-21377D02*
X41574Y-22283D01*
X41574Y-22283D02*
X41456Y-22401D01*
X41456Y-22401D02*
X40275Y-22401D01*
X42716Y-21141D02*
X42480Y-21377D01*
X46031Y-20637D02*
X45472Y-20078D01*
X36141Y-26496D02*
X36929Y-26496D01*
X37173Y-26252D02*
X37173Y-25787D01*
X36929Y-26496D02*
X37173Y-26252D01*
X35748Y-26496D02*
X36141Y-26496D01*
X35551Y-26299D02*
X35748Y-26496D01*
X35551Y-23661D02*
X35551Y-26299D01*
X36614Y-22598D02*
X35551Y-23661D01*
X37173Y-25787D02*
X37173Y-25271D01*
X37173Y-25271D02*
X36614Y-24712D01*
X46456Y-20637D02*
X46456Y-21475D01*
X63098Y-34842D02*
X63098Y-34515D01*
X59921Y-34094D02*
X59527Y-33700D01*
X62677Y-34094D02*
X59921Y-34094D01*
X63098Y-34515D02*
X62677Y-34094D01*
X57499Y-34251D02*
X57499Y-33918D01*
X57716Y-33700D02*
X59527Y-33700D01*
X57499Y-33918D02*
X57716Y-33700D01*
X55086Y-34251D02*
X57499Y-34251D01*
X42362Y-24500D02*
X41665Y-24500D01*
X41310Y-24145D02*
X41310Y-23606D01*
X41665Y-24500D02*
X41310Y-24145D01*
X59086Y-27952D02*
X59145Y-27952D01*
X59145Y-27952D02*
X59933Y-28740D01*
X59933Y-28740D02*
X59933Y-29027D01*
X59933Y-29027D02*
X61141Y-30236D01*
X61141Y-30236D02*
X62913Y-30236D01*
X62913Y-30236D02*
X63157Y-29992D01*
X63157Y-29992D02*
X63157Y-29527D01*
X59086Y-27952D02*
X58249Y-27952D01*
X59881Y-35590D02*
X59984Y-35590D01*
X59960Y-35590D02*
X59960Y-35566D01*
X59984Y-35590D02*
X59960Y-35590D01*
X63157Y-35826D02*
X63157Y-36015D01*
X63157Y-36015D02*
X62598Y-36574D01*
X62598Y-36574D02*
X60968Y-36574D01*
X60968Y-36574D02*
X59960Y-35566D01*
X59960Y-35566D02*
X59933Y-35539D01*
X59086Y-35826D02*
X59645Y-35826D01*
X59933Y-35539D02*
X59933Y-35039D01*
X59645Y-35826D02*
X59881Y-35590D01*
X59881Y-35590D02*
X59933Y-35539D01*
X58249Y-35826D02*
X58542Y-35826D01*
X59086Y-35826D02*
X58542Y-35826D01*
X63157Y-32677D02*
X63157Y-33220D01*
X60629Y-33385D02*
X59933Y-32688D01*
X62992Y-33385D02*
X60629Y-33385D01*
X63157Y-33220D02*
X62992Y-33385D01*
X59086Y-32677D02*
X59086Y-32055D01*
X59251Y-31889D02*
X59933Y-31889D01*
X59086Y-32055D02*
X59251Y-31889D01*
X59933Y-31889D02*
X59933Y-32688D01*
X58249Y-32677D02*
X58542Y-32677D01*
X59086Y-32677D02*
X58542Y-32677D01*
X59933Y-25590D02*
X59933Y-26429D01*
X60511Y-27007D02*
X61377Y-27007D01*
X59933Y-26429D02*
X60511Y-27007D01*
X59086Y-26377D02*
X59086Y-25874D01*
X59370Y-25590D02*
X59933Y-25590D01*
X59086Y-25874D02*
X59370Y-25590D01*
X61377Y-27007D02*
X62992Y-27007D01*
X62992Y-27007D02*
X63157Y-26842D01*
X63157Y-26842D02*
X63157Y-26377D01*
X58249Y-26377D02*
X58542Y-26377D01*
X59086Y-26377D02*
X58542Y-26377D01*
X63098Y-31692D02*
X63098Y-30854D01*
X59480Y-30708D02*
X59086Y-31102D01*
X62952Y-30708D02*
X59480Y-30708D01*
X63098Y-30854D02*
X62952Y-30708D01*
X59086Y-31102D02*
X58249Y-31102D01*
X50275Y-16968D02*
X50358Y-17051D01*
X50354Y-17047D02*
X50354Y-17051D01*
X50358Y-17051D02*
X50354Y-17047D01*
X49515Y-15232D02*
X50035Y-15232D01*
X50275Y-15472D02*
X50275Y-16968D01*
X50275Y-16968D02*
X50275Y-17051D01*
X50035Y-15232D02*
X50275Y-15472D01*
X52059Y-17051D02*
X50354Y-17051D01*
X50354Y-17051D02*
X50275Y-17051D01*
X50275Y-17051D02*
X50271Y-17051D01*
X50090Y-17232D02*
X49515Y-17232D01*
X50271Y-17051D02*
X50090Y-17232D01*
X42204Y-33358D02*
X42664Y-33358D01*
X42664Y-33358D02*
X43070Y-32952D01*
X44440Y-32842D02*
X44881Y-32842D01*
X44330Y-32952D02*
X44440Y-32842D01*
X43070Y-32952D02*
X44330Y-32952D01*
X36614Y-31799D02*
X36838Y-31799D01*
X37173Y-32133D02*
X37173Y-32874D01*
X36838Y-31799D02*
X37173Y-32133D01*
X37173Y-32874D02*
X37519Y-32874D01*
X37519Y-32874D02*
X38004Y-33358D01*
X44881Y-33680D02*
X44881Y-33386D01*
X44881Y-32842D02*
X44881Y-33386D01*
X38004Y-33358D02*
X42204Y-33358D01*
X42362Y-26220D02*
X42795Y-26220D01*
X42795Y-26220D02*
X43089Y-25926D01*
X44448Y-25669D02*
X46338Y-25669D01*
X44015Y-25926D02*
X43089Y-25926D01*
X44191Y-25926D02*
X44409Y-25708D01*
X44015Y-25926D02*
X44191Y-25926D01*
X46456Y-25787D02*
X46456Y-26346D01*
X44409Y-25708D02*
X44448Y-25669D01*
X46338Y-25669D02*
X46456Y-25787D01*
X37244Y-26732D02*
X37559Y-26732D01*
X38070Y-26220D02*
X42362Y-26220D01*
X37559Y-26732D02*
X38070Y-26220D01*
X36614Y-28255D02*
X36248Y-28255D01*
X36181Y-26732D02*
X37244Y-26732D01*
X35984Y-26929D02*
X36181Y-26732D01*
X35984Y-27992D02*
X35984Y-26929D01*
X36248Y-28255D02*
X35984Y-27992D01*
X37173Y-29330D02*
X37173Y-28814D01*
X37173Y-28814D02*
X36614Y-28255D01*
X46456Y-26346D02*
X46456Y-27184D01*
X37173Y-36417D02*
X37795Y-36417D01*
X37795Y-36417D02*
X38543Y-37165D01*
X42165Y-37165D02*
X38543Y-37165D01*
X36614Y-35342D02*
X36956Y-35342D01*
X37173Y-35559D02*
X37173Y-36417D01*
X36956Y-35342D02*
X37173Y-35559D01*
X46456Y-32842D02*
X46456Y-33680D01*
X63098Y-25393D02*
X63098Y-24830D01*
X59401Y-24488D02*
X59086Y-24803D01*
X62755Y-24488D02*
X59401Y-24488D01*
X63098Y-24830D02*
X62755Y-24488D01*
X59086Y-24803D02*
X58249Y-24803D01*
M02*
